<svg xmlns="http://www.w3.org/2000/svg" width="116.837" height="121.08" viewBox="0 0 116.837 121.08">
  <path d="M31.027,119.132a24.294,24.294,0,0,1-9.512-3.707,10.019,10.019,0,0,1-2.808-2.866H0v-2.277H17.656q-.086-.272-.16-.555a108.412,108.412,0,0,1-2.36-13.047C13.9,87.448,12.718,78.2,11.468,68.971a3.949,3.949,0,0,1,1.289-3.626,19.183,19.183,0,0,1,3.633-2.667,30.757,30.757,0,0,1,10.081-3.2c3.953-.616,7.94-.976,12.224-1.483.128-.281.4-.841.642-1.414a39.736,39.736,0,0,1,4.47-8.278,16.773,16.773,0,0,1,5.335-4.941,2.019,2.019,0,0,1,.619-.316c1.814-.272,2.839-1.6,3.987-2.835,1.562-1.678,3.252-3.231,4.976-4.769-.482,1.9-1.982,3.189-3.173,5.163a8.772,8.772,0,0,0,1.324-.476c3.091-1.846,6.149-3.754,9.272-5.54a13.478,13.478,0,0,1,4.918-1.655c-4.015,2.473-7.9,5.1-11.518,7.854-.249,1.1.463,1.426.982,1.857a37.15,37.15,0,0,1,6.658,6.881,27.356,27.356,0,0,1,4,8.66c-.362-.53-.748-1.039-1.075-1.588A26.362,26.362,0,0,0,53.935,44.159c-.814-.226-1.585-.616-2.586-1.013a14,14,0,0,0-5.421,5.164A48.658,48.658,0,0,0,40.66,58.924c-1.538,4.2-2.9,8.473-4.353,12.71-.183.534-.417,1.052-.763,1.928-.121-.993-.194-1.6-.257-2.122-.7-.751-1.507-.507-2.216-.413-2.877.378-5.744.829-8.613,1.25a2.481,2.481,0,0,1-1.029-.012c3.832-2.036,8.033-2.69,12.328-3.294.693-2.862,1.367-5.666,2.037-8.438-.179-.113-.276-.229-.374-.229-6.484.136-12.862.934-18.874,3.535a17.779,17.779,0,0,0-3.762,2.477c-.832.654-.775.8-1.075,2.176a29.3,29.3,0,0,1,3.123-2.441A7.377,7.377,0,0,1,20.8,64.7c-1.414.76-2.621,1.317-3.715,2.037A8.207,8.207,0,0,0,15.058,68.6a1.881,1.881,0,0,0,.495,3.01A20.269,20.269,0,0,0,19.217,73.6,39.054,39.054,0,0,0,30.19,76.248c3.119.3,6.25.471,9.377.681a11.89,11.89,0,0,0,1.542-.1c.194-1.581.393-3.123.569-4.666A84.24,84.24,0,0,1,45.922,52.94a22.063,22.063,0,0,1,1.892-3.872A70.631,70.631,0,0,0,44.8,62.635a129.877,129.877,0,0,0-.954,13.936,2.52,2.52,0,0,0,.74.261c6.405-.346,12.741-1.09,18.648-3.835A17.122,17.122,0,0,0,66.4,70.866a3.63,3.63,0,0,0,1.39-2.553,4.885,4.885,0,0,0-2.176-2.828,19.647,19.647,0,0,0-5.8-2.757,50.407,50.407,0,0,0-10.723-2.114c-.732,2.757-.666,5.6-1.172,8.524,3.5.891,6.981,1.3,10.007,3.142-3.252-.37-6.452-1.175-9.793-1.2-.316.638-.584,1.184-.977,1.981a7.894,7.894,0,0,1-.187-.868c-.487-6.588-.537-13.17,1.059-19.634a58.061,58.061,0,0,1,2.309-6.565,4.263,4.263,0,0,1,1.16-1.472,68.272,68.272,0,0,0-2.368,14.022c1.129.179,2.142.35,3.158.507a39.417,39.417,0,0,1,12.169,3.5A19.071,19.071,0,0,1,68.023,65a4.649,4.649,0,0,1,1.53,4.587c-.148.849-.3,1.693-.494,2.74a8.636,8.636,0,0,0,1.227-.467,15.525,15.525,0,0,1,5.264-1.749c3.851-.666,8.154,1.3,9.821,4.529a10.317,10.317,0,0,1,.487,8.154,23.153,23.153,0,0,1-4.092,7.262,74.15,74.15,0,0,1-10.043,9.922c-2.067,1.787-4.127,3.587-6.215,5.351a3.631,3.631,0,0,0-1.534,2.62c-.028.4-.222.79-.265,1.192a9,9,0,0,1-.2,1.143H88.549v2.278H62.58a10.4,10.4,0,0,1-3.844,3.538,30.042,30.042,0,0,1-10.883,3.488,48.9,48.9,0,0,1-6.957.493A52.836,52.836,0,0,1,31.027,119.132ZM14.591,75.384c.8,6.583,1.573,13.172,2.426,19.75a103.014,103.014,0,0,0,2.538,14.247,7.57,7.57,0,0,0,3.357,4.483,24.757,24.757,0,0,0,8.578,3.247,46.481,46.481,0,0,0,13.177.661,49.426,49.426,0,0,0,7.029-1.14,19.109,19.109,0,0,0,7-2.994,6.514,6.514,0,0,0,2.882-4.388c.81-5,1.682-9.981,2.425-14.989.631-4.256,1.118-8.535,1.663-12.806.327-2.528.642-5.055,1.008-7.932-.689.323-1.086.525-1.5.7-1.6.673-3.173,1.436-4.817,1.99a57.209,57.209,0,0,1-14.54,2.523,80.449,80.449,0,0,1-14.777-.389,47.117,47.117,0,0,1-12.819-3.061c-1.211-.5-2.372-1.125-3.731-1.779C14.529,74.25,14.525,74.823,14.591,75.384Zm67.995,2.2a7.8,7.8,0,0,1-.432,4.954,22.018,22.018,0,0,1-6.129,8.59,43.348,43.348,0,0,1-8.979,6.28c-.736.39-1.433.8-1.569,1.73.6,1.764,1.456,2.141,2.745,1.058,4.139-3.484,8.294-6.958,11.716-11.2a21.8,21.8,0,0,0,3.988-6.928c1.6-4.945-.783-9.107-5.779-9.871a8.7,8.7,0,0,0-3.6.328c-3.5,1.024-5.638,3.426-6.666,7.239,1.632-.853,2.388-2.445,4.035-2.987-.919,1.184-1.8,2.189-2.535,3.3a12.2,12.2,0,0,0-2.266,5.774c-.3,3.477-.864,6.93-1.3,10.4a6.365,6.365,0,0,0,.062,1.11,1.626,1.626,0,0,0,.475-.116A75.091,75.091,0,0,0,76.64,88.1a20.653,20.653,0,0,0,4.081-6.258,10.748,10.748,0,0,0,.72-3.379,3.547,3.547,0,0,0-2.469-3.637c-.451-.175-.911-.331-1.562-.57.247-.022.484-.032.713-.032A4.221,4.221,0,0,1,82.586,77.584ZM26.775,79.426c4.206.315,8.154.688,12.106.884a71.341,71.341,0,0,0,11.8-.611,74.9,74.9,0,0,0,11.694-2.361c-4.2,2.4-12.857,3.971-21.361,3.971A47.738,47.738,0,0,1,26.775,79.426ZM70.457,44.683c.693,3.774,1.382,7.547,2.052,11.211C70.959,53.652,69.978,48.425,70.457,44.683ZM58.623,32.1c-.428-.958-.771-1.949-1.211-2.9a5.417,5.417,0,0,1,.335-5.183,18.619,18.619,0,0,1,4.544-5.252A57.255,57.255,0,0,1,84.14,7.56,27.991,27.991,0,0,1,92.6,6.547C94.447,4.889,96.3,3.3,98.06,1.609a5.366,5.366,0,0,1,4.26-1.6c.927.058,1.858.206,2.781.175a3.9,3.9,0,0,1,3.539,2.119,69.386,69.386,0,0,1,5.218,9.867c.67,1.484,1.246,3.006,1.841,4.521a1.7,1.7,0,0,1,.04,1.25c-.249-.529-.514-1.05-.744-1.589a80.1,80.1,0,0,0-6.257-11.876c-.627-.969-1.379-1.858-2.037-2.737-.709-.105-1.282-.2-1.854-.269C102.176,1.158,99.786,1.54,98,3.9A31.554,31.554,0,0,1,95.07,6.866c.647.445,1.208.823,1.877,1.282L102.78,3.77c-.206,1.3-1.265,1.936-2,2.808-.779.934-1.639,1.8-2.6,2.835.42.413.81.786,1.289,1.254,1.8-1.526,3.52-2.978,5.058-4.283a1.671,1.671,0,0,1,1.744,1.066q2.757,5.836,5.483,11.689a.688.688,0,0,1-.1.55c-2.228-3.859-4.12-7.916-6.787-11.7-.323.381-.5.588-.736.871.487.978.966,1.948,1.589,3.208-1.207-.677-1.257-1.88-2.246-2.566-.771.76-1.57,1.554-2.492,2.47,5.95,6.1,11.2,12.6,14.8,20.291-.962-1.426-1.912-2.867-2.889-4.28A82.616,82.616,0,0,0,99.8,13.287a5.886,5.886,0,0,0-.665-.56.985.985,0,0,0-1.414.082,1.027,1.027,0,0,0,.039,1.428c.284.366.624.694.939,1.032a120.426,120.426,0,0,1,10.226,12.371c.335.474.638.974.942,1.468a1,1,0,0,1,.047.358c-2.465-2.512-4.833-5-7.282-7.394C101.02,20.483,99.314,18.98,97.6,17.5c-1.379-1.2-2.2-1.156-3.478.078A51.977,51.977,0,0,1,77.688,27.909,39.228,39.228,0,0,1,65.461,31.2c-1.939.145-3.9-.05-5.973-.093v2.262A10.219,10.219,0,0,1,58.623,32.1ZM85.145,9.319a55.129,55.129,0,0,0-15.19,6.351,34.319,34.319,0,0,0-8.7,6.88,14.813,14.813,0,0,0-2.192,3.323,2.048,2.048,0,0,0,1.488,3.1,30.056,30.056,0,0,0,3.263.549c1.674-.257,3.352-.413,4.984-.783A55.829,55.829,0,0,0,86.46,21.161a30.569,30.569,0,0,0,7.2-6,16.117,16.117,0,0,0,2.165-3.532,1.819,1.819,0,0,0-.958-2.484,6.2,6.2,0,0,0-1.647-.522,11.516,11.516,0,0,0-2.253-.212A24.821,24.821,0,0,0,85.145,9.319Zm-23.4,16.172a4.716,4.716,0,0,1,2.9-4.814c-.728,1.009-1.448,1.951-2.111,2.933a1.335,1.335,0,0,0-.082,1.616,1.613,1.613,0,0,0,1.2.642,15.392,15.392,0,0,0,4.8-.283,57.979,57.979,0,0,0,15.965-6.679c.782-.459,1.553-.942,2.328-1.413A35.763,35.763,0,0,1,77.926,23a41.765,41.765,0,0,1-12.083,3.688,8.175,8.175,0,0,1-1.065.076A3.781,3.781,0,0,1,61.742,25.492Z" transform="translate(0.5 0.5)" fill="currentcolor" stroke="rgba(0,0,0,0)" stroke-miterlimit="10" stroke-width="1"/>
</svg>