<svg xmlns="http://www.w3.org/2000/svg" width="116.771" height="117.582" viewBox="0 0 116.771 117.582">
  <path d="M28.449,116.573a1.256,1.256,0,0,1-1.309-1.263q-.017-1.279-.023-2.541H0v-2.512H27.116q.005-1.541.026-3.034a1.2,1.2,0,0,1,1.237-1.2c.233-.014.466-.019.708-.019.2,0,.4,0,.606.006.235,0,.482.006.744.006h.606v-1.989q0-6.045-.019-12.091c-.022-9.113-.044-18.537.05-27.8.115-11.306,5.53-19.625,16.093-24.728.19-.092.381-.179.572-.265l.417-.192a.789.789,0,0,0,.257-.2l.064-.073.059-.111a1.791,1.791,0,0,0-.644-2.125c-1.006-1.005-1.983-1.985-2.957-2.965-1.735-1.744-3.47-3.488-5.224-5.213a2.55,2.55,0,0,1-.852-2.046c.036-1.96.03-3.951.025-5.876q0-1.486,0-2.973c0-1.322.393-1.726,1.669-1.726H55.839q9.679,0,19.359-.029a1.7,1.7,0,0,1,1.238.5,1.542,1.542,0,0,1,.431,1.146c-.086,3.091-.051,6.2-.01,9.11a2.311,2.311,0,0,1-.784,1.831q-2.754,2.726-5.481,5.476c-.918.923-2.821,2.83-2.821,2.83a1.747,1.747,0,0,0-.586,2.049l.091.236.587.257c.276.121.578.251.875.39A26.786,26.786,0,0,1,84.655,64.021c.03,10.122.026,20.416.023,30.369l0,11.624,1.795-.005c.221,0,.438,0,.656.009,1,.032,1.454.484,1.462,1.465.007.885.012,1.8.013,2.776h27.169v2.512H88.6c0,.69-.005,1.418-.01,2.192-.007,1.189-.443,1.611-1.665,1.612q-6.917.008-13.834.005l-43.826,0-.51.005C28.653,116.582,28.551,116.581,28.449,116.573Zm1.427-2.786H85.9s0-.474,0-1.017h0v-1.507c0-.444-.022-2.481-.022-2.481h-56Zm3.867-10.317c0,.446.022,2.48.022,2.48H50.581v-5H33.742S33.741,103.052,33.743,103.47Zm19.591,0c0,.436.021,2.479.021,2.479h8.979v-5h-9S53.332,103.05,53.334,103.469Zm11.751,0c0,.447.02,1.873.02,1.873l.006.6H81.9l.056-.8c.014-.166.025-.311.026-.456,0-.752,0-1.5,0-2.288v-1.46H65.085S65.084,103.058,65.085,103.474ZM47.773,42.194c-.14.065-.274.122-.4.177a8.475,8.475,0,0,0-.8.38C38.256,47.458,33.957,54.5,33.792,63.668c-.139,7.736-.108,15.6-.076,23.206q.019,4.856.027,9.71a5.74,5.74,0,0,0,.058.706c.011.086.022.171.03.253l.054.55H50.578V93h-1.9c-.616,0-1.232-.006-1.849-.012-.634-.006-1.269-.013-1.9-.013-.972,0-1.772.014-2.517.047l-.068,0a1.5,1.5,0,0,1-1.082-.462,1.554,1.554,0,0,1-.445-1.114c.049-2.023.041-4.078.032-6.065,0-1.093-.008-2.185,0-3.277.005-1.208.421-1.62,1.649-1.633.41-.006.82-.007,1.239-.007l3.843,0-1.319-1.079a19.518,19.518,0,0,1-7.315-16.662,19.18,19.18,0,0,1,9.4-15.233l.294-.177V41.8Zm20.594,50.8c-.575.005-1.151.012-1.726.014a5.644,5.644,0,0,0-.7.058c-.083.011-.164.022-.242.03l-.546.054v4.932H81.979V89.19q0-12.523-.014-25.044a24.2,24.2,0,0,0-9.009-18.973,20.063,20.063,0,0,0-5.015-3.029l-.836-.345v5.567l.3.176a19.378,19.378,0,0,1,9.424,15.341,19.037,19.037,0,0,1-7.188,16.4l-.568.454.547.479a.615.615,0,0,0,.462.212l1.333.016c.615.007,1.23.013,1.846.024,1.208.022,1.616.444,1.62,1.671,0,.993,0,1.985-.008,2.978-.011,2.005-.022,4.079.038,6.122a1.774,1.774,0,0,1-.445,1.325,1.626,1.626,0,0,1-1.2.464l-.1,0c-.8-.036-1.662-.052-2.706-.052C69.755,92.977,69.062,92.984,68.367,92.992ZM53.406,98.069h8.887V93.022H53.406ZM43.62,90.245h6.951V83.252H43.62Zm9.945-6.612a22.429,22.429,0,0,0-.078,6.085l.092.5h8.809v-3.5L62.373,83.2H53.7Zm11.573,6.578h7.045s0-2.855,0-3.506l-.017-3.461H65.138ZM47.708,51.48A16.265,16.265,0,0,0,57.774,80.45q.456,0,.916-.025A16.2,16.2,0,0,0,73.772,67.546c1.3-6.03-1.215-13.052-5.723-15.985l-.633-.412-.265.708a.741.741,0,0,0-.08.324c0,.375-.013.751-.022,1.128-.023.889-.048,1.809.02,2.722a1.434,1.434,0,0,1-.379,1.108,1.692,1.692,0,0,1-1.244.524c-1.941-.024-3.985-.036-6.651-.036l-6.9.008-1.65,0c-1.111,0-1.55-.448-1.564-1.595-.012-.893-.009-1.786-.006-2.731l0-2.542ZM61.746,37.99c-.45,0-.9.008-1.34.014l-1.135.014v16.86h4.991V37.989H62.477ZM51.419,54.873h5.024v-16.8H51.419Zm-.5-19.616H64.783l7.142-7.113h-3.57v-2.72h5.714v-7H41.578s0,2.858,0,3.5l.017,3.533H55.211v2.72h-11.3Zm5.641,30.182V62.869h2.584v2.569Zm-7.815-.022v-2.57h2.584v2.57Zm15.677,0V62.852H67v2.561ZM60.5,28.086V25.519H63.08v2.568Zm.023-17.627v-2.6H63.1c.045.881.039,1.758.014,2.6ZM42.889,8.5v-2.6h2.586c.047.831.029,1.657.011,2.522V8.5ZM68.357,6.53v-2.6H70.94c.045.861.033,1.714.014,2.6ZM50.726,2.6V0h2.588c.041.71.028,1.419.014,2.161,0,.147-.006.293-.009.439Z" transform="translate(0.5 0.5)" fill="currentcolor" stroke="rgba(0,0,0,0)" stroke-miterlimit="10" stroke-width="1"/>
</svg>