<svg xmlns="http://www.w3.org/2000/svg" width="100.852" height="175.643" viewBox="0 0 100.852 175.643"><g transform="translate(429.5 -11450.5)"><path d="M0,146.554V0H91.046V146.554Zm3.581-3.58H87.466V3.581H3.581ZM55.939,98.64a27.946,27.946,0,1,1,8.863-5.7l3.081,4.482L59.2,103.386ZM35.151,57.614A18.316,18.316,0,0,0,50.274,90.4l-8.86-12.891L50.1,71.539l9.145,13.306A18.315,18.315,0,0,0,35.151,57.614Z" transform="translate(-429 11451)" fill="#232323" stroke="rgba(0,0,0,0)" stroke-miterlimit="10" stroke-width="1"/><path d="M23.024,22.116V18.644H38.451v3.472H32.593v14.69h-3.71V22.116Z" transform="translate(-431.821 11448.716)" fill="#232323"/><path d="M44.042,18.644h3.689v7.1h7.876v-7.1h3.71V36.805h-3.71V29.255H47.731v7.551H44.042Z" transform="translate(-434.397 11448.716)" fill="#232323"/><path d="M78.667,18.644v3.472H70.553v3.623h7.356v3.516H70.553v4.078h8.159v3.472H66.864V18.644Z" transform="translate(-437.194 11448.716)" fill="#232323"/><path d="M39.057,145.034v3.472h-11.8V130.345h3.71v14.69Z" transform="translate(-432.34 11435.027)" fill="#232323"/><path d="M55.524,148.507l-1.5-4.145h-6.9l-1.475,4.145H41.767l6.727-18.162h4.187l6.727,18.162Zm-2.734-7.638-2.213-6.183-2.214,6.183Z" transform="translate(-434.118 11435.027)" fill="#232323"/><path d="M77.247,137.332a3.23,3.23,0,0,1-1.27,1.367,6.072,6.072,0,0,1,1.974,1.649,4.364,4.364,0,0,1,.641,1.3,4.925,4.925,0,0,1,.206,1.411,4.86,4.86,0,0,1-2.116,4.188,6.633,6.633,0,0,1-2.137.955,9.85,9.85,0,0,1-2.431.3h-7.2V130.345h6.336a10.609,10.609,0,0,1,2.929.358,6.076,6.076,0,0,1,2.061,1,4.108,4.108,0,0,1,1.649,3.352,4.422,4.422,0,0,1-.64,2.279m-3.82-3.017a4.122,4.122,0,0,0-2.375-.5H68.6v3.623h2.453a4.467,4.467,0,0,0,2.343-.455,1.652,1.652,0,0,0,.032-2.669m1.357,7.671a1.665,1.665,0,0,0-.629-.618,3,3,0,0,0-1.063-.336,10.207,10.207,0,0,0-1.5-.1H68.6v4.1h3.081a4.992,4.992,0,0,0,2.539-.488A1.7,1.7,0,0,0,75,142.994a2.023,2.023,0,0,0-.217-1.008" transform="translate(-436.954 11435.027)" fill="#232323"/><path d="M22.938,179.41v-3.472H38.366v3.472H32.507V194.1H28.8V179.41Z" transform="translate(-431.811 11429.44)" fill="#232323"/><path d="M59.885,188.933a8.046,8.046,0,0,1-2.06,2.908l2.734,2.886-1.91,1.93-3.082-3.276a9.324,9.324,0,0,1-4.3.933,9.766,9.766,0,0,1-3.8-.716,8.953,8.953,0,0,1-4.924-4.958,10.166,10.166,0,0,1,0-7.388A8.866,8.866,0,0,1,44.5,178.28a9.284,9.284,0,0,1,2.973-1.986,10.286,10.286,0,0,1,7.594,0,9.245,9.245,0,0,1,2.973,1.986,8.844,8.844,0,0,1,1.953,2.973,10.229,10.229,0,0,1-.109,7.68M56.4,182.522a5.49,5.49,0,0,0-1.162-1.833,5.058,5.058,0,0,0-1.757-1.172,5.861,5.861,0,0,0-2.214-.412,5.788,5.788,0,0,0-2.191.412,5.057,5.057,0,0,0-1.758,1.172,5.486,5.486,0,0,0-1.16,1.833,7.116,7.116,0,0,0,0,4.838,5.49,5.49,0,0,0,1.16,1.834,5.208,5.208,0,0,0,1.758,1.183,5.661,5.661,0,0,0,2.191.423,5.22,5.22,0,0,0,1.649-.195l-1.736-1.888,1.931-1.844,2.17,2.279a4.78,4.78,0,0,0,1.073-1.682,7.1,7.1,0,0,0,.045-4.947" transform="translate(-434.129 11429.485)" fill="#232323"/><path d="M79.175,190.628V194.1h-11.8V175.938h3.711v14.689Z" transform="translate(-437.256 11429.44)" fill="#232323"/><path d="M110.3.019a3.249,3.249,0,0,1,1.564.411,2.92,2.92,0,0,1,1.188,1.176,3.2,3.2,0,0,1,.007,3.176,2.965,2.965,0,0,1-1.176,1.178,3.2,3.2,0,0,1-3.165,0,2.972,2.972,0,0,1-1.178-1.178,3.183,3.183,0,0,1,.006-3.176A2.937,2.937,0,0,1,108.738.43,3.254,3.254,0,0,1,110.3.019m0,.526a2.722,2.722,0,0,0-1.3.344,2.463,2.463,0,0,0-.992.983A2.641,2.641,0,0,0,108,4.518a2.5,2.5,0,0,0,.984.982,2.649,2.649,0,0,0,2.639,0,2.47,2.47,0,0,0,.982-.982,2.655,2.655,0,0,0-.006-2.646A2.443,2.443,0,0,0,111.6.889a2.72,2.72,0,0,0-1.3-.344m-1.4,4.414V1.536h1.176a2.871,2.871,0,0,1,.872.095.844.844,0,0,1,.43.331.875.875,0,0,1,.161.5.913.913,0,0,1-.268.654,1.06,1.06,0,0,1-.711.311.941.941,0,0,1,.291.182,3.866,3.866,0,0,1,.506.678l.417.67h-.675l-.3-.54a2.762,2.762,0,0,0-.578-.8.708.708,0,0,0-.441-.118h-.326V4.958Zm.552-1.927h.67a1.08,1.08,0,0,0,.655-.143.491.491,0,0,0,.09-.65.5.5,0,0,0-.233-.18A1.738,1.738,0,0,0,110.087,2h-.628Z" transform="translate(-442.127 11450.998)" fill="#232323"/></g></svg>