<svg xmlns="http://www.w3.org/2000/svg" width="505.058" height="509.77" viewBox="0 0 505.058 509.77"><g transform="translate(-6460.122 -9570.113)"><path d="M190.865,268.075a139.053,139.053,0,1,1,44.1-28.377L250.292,262l-43.2,29.688ZM87.427,63.944a91.135,91.135,0,0,0,75.25,163.119l-44.083-64.139,43.2-29.688,45.5,66.2A91.128,91.128,0,0,0,87.427,63.944Z" transform="translate(6570.106 9681.83)" fill="#1a1818" stroke="rgba(0,0,0,0)" stroke-miterlimit="10" stroke-width="1"/><path d="M278.978,31s7.761,55.756-43.541,77.751c-51.393,22.032-103.252,56.6-120.668,148.036" transform="translate(6417.092 9543.903)" fill="none" stroke="#e38565" stroke-miterlimit="10" stroke-width="2"/><path d="M212.28,34.781a6.353,6.353,0,1,1-6.353-6.353,6.354,6.354,0,0,1,6.353,6.353" transform="translate(6490.198 9541.686)" fill="#e38565"/><path d="M119.27,160.8l8.482-14.69H110.788Z" transform="translate(6413.659 9643.14)" fill="#e38565"/><path d="M78.816,172.329s55.756-7.761,77.751,43.541c22.032,51.393,56.6,103.252,148.036,120.668" transform="translate(6386.097 9665.377)" fill="none" stroke="#d1aa77" stroke-miterlimit="10" stroke-width="2"/><path d="M82.6,168.694a6.353,6.353,0,1,1-6.353,6.353,6.354,6.354,0,0,1,6.353-6.353" transform="translate(6383.879 9662.604)" fill="#d1aa77"/><path d="M208.62,263.674l-14.69-8.482v16.963Z" transform="translate(6485.333 9737.172)" fill="#d1aa77"/><path d="M223.488,404.15s-7.761-55.756,43.541-77.751C318.422,304.367,370.28,269.8,387.7,178.363" transform="translate(6510.453 9670.939)" fill="none" stroke="#c95b3e" stroke-miterlimit="10" stroke-width="2"/><path d="M219.853,301.722a6.353,6.353,0,1,1,6.353,6.353,6.354,6.354,0,0,1-6.353-6.353" transform="translate(6507.68 9771.807)" fill="#c95b3e"/><path d="M314.834,176.616l-8.482,14.69h16.963Z" transform="translate(6582.249 9669.434)" fill="#c95b3e"/><path d="M449.436,228.814s-55.756,7.761-77.751-43.541c-22.032-51.393-56.6-103.252-148.036-120.668" transform="translate(6510.953 9572.873)" fill="none" stroke="#385f2f" stroke-miterlimit="10" stroke-width="2"/><path d="M347.007,162.116a6.353,6.353,0,1,1,6.353-6.353,6.354,6.354,0,0,1-6.353,6.353" transform="translate(6611.819 9645.979)" fill="#385f2f"/><path d="M221.9,69.106l14.69,8.482V60.624Z" transform="translate(6509.447 9569.44)" fill="#385f2f"/></g></svg>