<svg xmlns="http://www.w3.org/2000/svg" xmlns:xlink="http://www.w3.org/1999/xlink" width="117.128" height="225.543" viewBox="0 0 117.128 225.543"><defs><clipPath id="a"><rect width="117.128" height="117.352" fill="#d1aa77"/></clipPath><clipPath id="c"><rect width="117.128" height="117.801" fill="#d1aa77"/></clipPath></defs><g transform="translate(-1653.696 -3172.656)"><g transform="translate(1653.696 3172.656)" opacity="0.208" style="isolation:isolate"><g clip-path="url(#a)"><g transform="translate(0)"><g clip-path="url(#a)"><path d="M129.241,180.092a56.626,56.626,0,1,0-56.687-56.627,56.721,56.721,0,0,0,56.687,56.627m0-115.107A58.481,58.481,0,1,1,70.7,123.466a58.578,58.578,0,0,1,58.543-58.481" transform="translate(-70.691 -64.957)" fill="#d1aa77"/></g></g></g></g><g transform="translate(1653.696 3207.435)" opacity="0.498" style="isolation:isolate"><g clip-path="url(#c)"><g transform="translate(0)"><g clip-path="url(#c)"><path d="M129.241,223.959a56.627,56.627,0,1,0-56.687-56.627,56.721,56.721,0,0,0,56.687,56.627m0-115.107A58.481,58.481,0,1,1,70.7,167.333a58.578,58.578,0,0,1,58.543-58.481" transform="translate(-70.691 -108.444)" fill="#d1aa77"/></g></g></g></g><path d="M129.241,267.827A56.626,56.626,0,1,0,72.555,211.2a56.721,56.721,0,0,0,56.686,56.627m0-115.107A58.481,58.481,0,1,1,70.7,211.2a58.578,58.578,0,0,1,58.543-58.481" transform="translate(1583.005 3090.282)" fill="#d1aa77"/><path d="M129.258,200.253A58.55,58.55,0,1,0,187.808,258.8a58.549,58.549,0,0,0-58.549-58.549" transform="translate(1583.003 3080.847)" fill="#d1aa77"/><text transform="matrix(-0.905, -0.424, 0.424, -0.905, 1700.227, 3376.711)" fill="#fff" font-size="13" font-family="Gilroy-Bold, Gilroy" font-weight="700"><tspan x="0" y="0">Q</tspan></text><text transform="matrix(-0.773, -0.635, 0.635, -0.773, 1690.771, 3373.314)" fill="#fff" font-size="12" font-family="Gilroy-Bold, Gilroy" font-weight="700"><tspan x="0" y="0">U</tspan></text><text transform="matrix(-0.591, -0.807, 0.807, -0.591, 1683.989, 3366.441)" fill="#fff" font-size="13" font-family="Gilroy-Bold, Gilroy" font-weight="700"><tspan x="0" y="0">A</tspan></text><text transform="matrix(-0.393, -0.919, 0.919, -0.393, 1678.232, 3358.316)" fill="#fff" font-size="13" font-family="Gilroy-Bold, Gilroy" font-weight="700"><tspan x="0" y="0">L</tspan></text><text transform="translate(1675.255 3350.877) rotate(-103.882)" fill="#fff" font-size="13" font-family="Gilroy-Bold, Gilroy" font-weight="700"><tspan x="0" y="0">I</tspan></text><text transform="translate(1674.036 3346.581) rotate(-93.948)" fill="#fff" font-size="13" font-family="Gilroy-Bold, Gilroy" font-weight="700"><tspan x="0" y="0">T</tspan></text><text transform="matrix(0.155, -0.988, 0.988, 0.155, 1673.472, 3337.842)" fill="#fff" font-size="13" font-family="Gilroy-Bold, Gilroy" font-weight="700"><tspan x="0" y="0">Y</tspan></text><text transform="matrix(0.317, -0.948, 0.948, 0.317, 1674.146, 3328.78)" fill="#fff" font-size="12" font-family="Gilroy-Bold, Gilroy" font-weight="700"><tspan x="0" y="0"> </tspan></text><text transform="translate(1675.591 3324.621) rotate(-65.14)" fill="#fff" font-size="12" font-family="Gilroy-Bold, Gilroy" font-weight="700"><tspan x="0" y="0"> </tspan></text><text transform="translate(1678.377 3321.133) rotate(-59.345)" fill="#fff" font-size="13" font-family="Gilroy-Bold, Gilroy" font-weight="700"><tspan x="0" y="0">.</tspan></text><text transform="translate(1679.366 3317.555) rotate(-53.551)" fill="#fff" font-size="12" font-family="Gilroy-Bold, Gilroy" font-weight="700"><tspan x="0" y="0"> </tspan></text><text transform="translate(1682.361 3314.794) rotate(-43.176)" fill="#fff" font-size="13" font-family="Gilroy-Bold, Gilroy" font-weight="700"><tspan x="0" y="0">Q</tspan></text><text transform="translate(1689.479 3308.134) rotate(-28.704)" fill="#fff" font-size="13" font-family="Gilroy-Bold, Gilroy" font-weight="700"><tspan x="0" y="0">A</tspan></text><text transform="translate(1698.152 3303.419) rotate(-14.232)" fill="#fff" font-size="13" font-family="Gilroy-Bold, Gilroy" font-weight="700"><tspan x="0" y="0">H</tspan></text><text transform="translate(1707.38 3300.738) rotate(3.062)" fill="#fff" font-size="13" font-family="Gilroy-Bold, Gilroy" font-weight="700"><tspan x="0" y="0">W</tspan></text><text transform="translate(1721.239 3301.795) rotate(20.441)" fill="#fff" font-size="13" font-family="Gilroy-Bold, Gilroy" font-weight="700"><tspan x="0" y="0">A</tspan></text><text transform="matrix(0.858, 0.514, -0.514, 0.858, 1731.143, 3304.782)" fill="#fff" font-size="12" font-family="Gilroy-Bold, Gilroy" font-weight="700"><tspan x="0" y="0"> </tspan></text><text transform="matrix(0.802, 0.598, -0.598, 0.802, 1734.316, 3307.922)" fill="#fff" font-size="13" font-family="Gilroy-Bold, Gilroy" font-weight="700"><tspan x="0" y="0">.</tspan></text><text transform="matrix(0.737, 0.675, -0.675, 0.737, 1737.772, 3309.281)" fill="#fff" font-size="12" font-family="Gilroy-Bold, Gilroy" font-weight="700"><tspan x="0" y="0"> </tspan></text><text transform="matrix(0.604, 0.797, -0.797, 0.604, 1740.203, 3312.55)" fill="#fff" font-size="13" font-family="Gilroy-Bold, Gilroy" font-weight="700"><tspan x="0" y="0">Q</tspan></text><text transform="matrix(0.422, 0.907, -0.907, 0.422, 1746.005, 3320.564)" fill="#fff" font-size="13" font-family="Gilroy-Bold, Gilroy" font-weight="700"><tspan x="0" y="0">-</tspan></text><text transform="matrix(0.226, 0.974, -0.974, 0.226, 1749.873, 3326.3)" fill="#fff" font-size="12" font-family="Gilroy-Bold, Gilroy" font-weight="700"><tspan x="0" y="0">G</tspan></text><text transform="translate(1750.944 3335.625) rotate(90.221)" fill="#fff" font-size="13" font-family="Gilroy-Bold, Gilroy" font-weight="700"><tspan x="0" y="0">R</tspan></text><text transform="translate(1750.96 3344.296) rotate(103.942)" fill="#fff" font-size="13" font-family="Gilroy-Bold, Gilroy" font-weight="700"><tspan x="0" y="0">A</tspan></text><text transform="translate(1749.451 3354.342) rotate(118.591)" fill="#fff" font-size="12" font-family="Gilroy-Bold, Gilroy" font-weight="700"><tspan x="0" y="0">D</tspan></text><text transform="translate(1744.382 3363.308) rotate(132.134)" fill="#fff" font-size="12" font-family="Gilroy-Bold, Gilroy" font-weight="700"><tspan x="0" y="0">E</tspan></text><text transform="translate(1738.036 3368.812) rotate(144.747)" fill="#fff" font-size="13" font-family="Gilroy-Bold, Gilroy" font-weight="700"><tspan x="0" y="0">R</tspan></text><text transform="translate(1730.796 3373.789) rotate(156.634)" fill="#fff" font-size="13" font-family="Gilroy-Bold, Gilroy" font-weight="700"><tspan x="0" y="0">S</tspan></text><text transform="translate(1696.237 3353.832)" fill="#fff" font-size="43" font-family="Gilroy-Bold, Gilroy" font-weight="700"><tspan x="0" y="0">Q</tspan></text></g></svg>