<svg xmlns="http://www.w3.org/2000/svg" width="151.723" height="157.383" viewBox="0 0 151.723 157.383"><g transform="translate(0.502 0.5)"><path d="M-11247.643-13325.4l.26-3.031,1-11.45c.122-1.6.23-3.2.379-4.8.268-2.818.6-5.623.89-8.437.112-1.069.2-2.143.3-3.215.044-.43.092-.862.132-1.255l.206-1.344c.2-1.691.393-3.289.6-4.987a6.307,6.307,0,0,1-1.035.484c-1.462.349-1.466.335-2,1.641-1.827.237-3.708.511-5.6.714a9.264,9.264,0,0,1-4.148-.937,25.753,25.753,0,0,1-2.4-1.052,1.223,1.223,0,0,0-1.525.236,11.2,11.2,0,0,0-.924,1.09,11.709,11.709,0,0,1-4.954,4,6.41,6.41,0,0,1-1.945.518,24.441,24.441,0,0,0-5.255,1.035,2.341,2.341,0,0,1-1.938-.213,13.627,13.627,0,0,1-1.319-.8,13.944,13.944,0,0,1-5.6-9.258c-.294-2.172-.758-4.317-1.031-6.492a18.1,18.1,0,0,1,3.366-13.335,11.825,11.825,0,0,1,1.982-2.05,16.178,16.178,0,0,0,2.236-2.3c2.213-2.762,4.437-5.525,6.764-8.2a104.978,104.978,0,0,0,9.14-12.238,59.214,59.214,0,0,1,8.767-10.844,29.273,29.273,0,0,1,11.477-7.068,25.553,25.553,0,0,1,7.018-1.278c1.5-.038,3.015-.024,4.523-.007a19.968,19.968,0,0,0,9.413-2.24,4.394,4.394,0,0,0,1.056-.768,17.12,17.12,0,0,1,4.733-3.167c2.7-1.289,2.125-.856,2.659-3.35.528-2.446.85-4.937,1.255-7.38a2.952,2.952,0,0,0-.456-.372,4.425,4.425,0,0,1-2.521-4.145,9.2,9.2,0,0,1,.075-1.672c.2-1.621.46-3.234.629-4.858.149-1.4.579-2.5,2.217-2.545.067-1.17.054-2.283.216-3.366a48.862,48.862,0,0,1,2.515-9.826c.98-2.652,3.129-3.941,5.792-4.374a3.037,3.037,0,0,0,1.925-.992,11.629,11.629,0,0,1,1.919-1.593,5.114,5.114,0,0,1,2.923-.853,24.551,24.551,0,0,1,5.647.846,42.607,42.607,0,0,1,11.28,4.084,13.716,13.716,0,0,1,5.772,5.859c.332.633.725,1.232,1.09,1.848a2.471,2.471,0,0,1,.192.3c1.421,3.84,1.841,7.666-.152,11.452a10.893,10.893,0,0,0-1.031,2.788,31.465,31.465,0,0,1-2.439,6.727,80.292,80.292,0,0,0-4.24,10.9,23,23,0,0,1-3.546,7.268c-.142.187-.247.4-.386.619.17.42.328.822.549,1.377,2.858,1.517,5.8,3.093,8.763,4.619a6.3,6.3,0,0,0,1.922.568,28.588,28.588,0,0,1,14.315,6.06,23.577,23.577,0,0,1,8.8,15.249c.416,2.92.795,5.844,1.194,8.764a32.8,32.8,0,0,0,2.348,8.374c1.706,4.033,3.388,8.076,5.075,12.116.187.44.359.89.512,1.34a35.21,35.21,0,0,0,2.788,6.32,17.812,17.812,0,0,1,2.256,6.142,12.973,12.973,0,0,1-.4,6.492c-.366,1.053-.738,2.1-1.141,3.144a9.179,9.179,0,0,1-4.4,5c-3.81,1.973-7.62,3.952-11.48,5.813a40.847,40.847,0,0,1-4.6,1.6,1.146,1.146,0,0,1-.349.089c-2.858.04-5.45,1.282-8.194,1.851a17.94,17.94,0,0,1-3.056.46c-.626.021-1.255.122-2.023.2-.067,1.729-.135,3.411-.2,5.079-.041,1.015-.082,2.02-.122,3.031Zm7.243-13.551c.288.24.563.5.866.721a36.975,36.975,0,0,0,12.807,5.9,69.511,69.511,0,0,0,13.192,1.925c2.419.139,4.846.2,7.268.294l1.231-.4c-.044-.007-.091-.018-.142-.027-3.569-.542-7.14-1.1-10.7-1.709-2.819-.48-5.651-.927-8.429-1.583-2.626-.619-5.214-1.425-7.771-2.287-2.6-.87-5.137-1.915-7.705-2.876a.669.669,0,0,0-.259-.055A.817.817,0,0,0-11240.4-13338.948Zm60.666-.268c.3.667.471,1.1.681,1.523a1.413,1.413,0,0,0,1.089.832c1.371.213,2.73.605,4.108.684a39,39,0,0,0,11.378-.748,14.817,14.817,0,0,0,5.634-2.46c.693-.521,1.388-1.042,2.077-1.557.863.65,1.053.734,1.726.64a14.838,14.838,0,0,0,11.484-7.616,6.757,6.757,0,0,0,.876-4.483,12.671,12.671,0,0,0-2.328-5.309,8.45,8.45,0,0,0-5.21-3.521,13.951,13.951,0,0,0-8.186.774,2.011,2.011,0,0,0-1.275,1.181,11.719,11.719,0,0,0,.376,1.137c.666,1.5,1.343,3,.6,4.649.951.778,2.166,1.266,2,2.744a1.043,1.043,0,0,1-.3,0q-5.029-2.461-10.059-4.923c-1.854-.9-3.705-1.823-5.593-2.656a4.637,4.637,0,0,0-1.959-.372,30.384,30.384,0,0,0-8.032,1.658,1.2,1.2,0,0,0-.91.859,3.942,3.942,0,0,0,.236,2.9c1.566.061,3.153.121,4.733.189a18.682,18.682,0,0,1,5.366,1.525c-3.81.349-7.612.45-11.416,1.019a5.181,5.181,0,0,0-.382,1.323,2.875,2.875,0,0,1-.1.765,3.011,3.011,0,0,0,.183,1.13c2.132.434,4.159.924,6.22,1.235s4.171.443,6.263.649c-.014.1-.024.189-.037.284a36.453,36.453,0,0,1-12.445-.129,12.6,12.6,0,0,0-.02,2.092,12.854,12.854,0,0,1,1.309,1.119,3.655,3.655,0,0,0,2.277,1.157q3.467.579,6.93,1.188c.423.075.832.2,1.248.3-1.516.142-3.024.142-4.564.139h-.277C-11177.248-13339.3-11178.474-13339.3-11179.733-13339.216Zm-26.723-6.245a6.663,6.663,0,0,0,2.331,2.354,12.484,12.484,0,0,0,10.11,1.262,9.442,9.442,0,0,0,4.99-3.884c.217-.3.437-.6.694-.94l.382-1.08a30.506,30.506,0,0,0,1.8-6.77,39.523,39.523,0,0,1-23.356-.085A26.126,26.126,0,0,0-11206.456-13345.461Zm50.857-20.4a29.241,29.241,0,0,1,9.538,1.9c4.636,1.875,7.572,5.14,8.323,10.191.118.778.122,1.566.2,2.622a6.033,6.033,0,0,0,.389-.859c.159-.7.308-1.4.427-2.1a17.121,17.121,0,0,0-.034-6.06,5.942,5.942,0,0,0-3.5-4.511,24.191,24.191,0,0,0-14.874-1.976c-.568.1-1.124.261-1.82.426a1.363,1.363,0,0,0,1.106.369h.126C-11155.681-13365.861-11155.64-13365.86-11155.6-13365.857Zm-78.643-10.137c-1.167,5.979-2.314,11.957-3.509,17.93a2.12,2.12,0,0,0,.309,1.688,7.479,7.479,0,0,0,3.1,2.535,22.439,22.439,0,0,0,7.183,2.057,11.651,11.651,0,0,0,4.733-.206,1.348,1.348,0,0,0,1.022-.894c.189-.565.437-1.113.643-1.672q2.689-7.277,5.38-14.556c.615-1.668,1.222-3.343,1.874-5.129a42.184,42.184,0,0,1-19.9-5.661C-11233.713-13378.471-11234-13377.235-11234.241-13375.994Zm43.921,18.037c.159.031.295.177.637.4-1.933.637-3.658,1.2-5.384,1.767a3.347,3.347,0,0,0,1.438.152c.906-.105,1.813-.23,2.71-.409a16.334,16.334,0,0,0,4.409-1.4c.442-.23.947-.42,1.133-1.147a3.38,3.38,0,0,0-.46-.3,20.333,20.333,0,0,0-3.045-1.319,34.237,34.237,0,0,0-11.227-.975c-.187.01-.379,0-.626,0-.064-.264-.129-.487-.173-.71-.243-1.208-.426-2.433-.737-3.624a13.3,13.3,0,0,0-3.661-6.463,5.62,5.62,0,0,0-2.416-1.58,13.6,13.6,0,0,1,2.149,3.388,34.978,34.978,0,0,1,1.955,9.277c-2.3.6-4.585.825-6.432,2.456a5.328,5.328,0,0,0,2.768,1.635,11.164,11.164,0,0,1,3.874-1.11c.111.538.2.954.287,1.4a6.1,6.1,0,0,0,2.565-.115v-1.59c.111-.1.139-.139.172-.146a25.358,25.358,0,0,1,3.544-.242A35.486,35.486,0,0,1-11190.32-13357.957Zm21.933-1.749a25.093,25.093,0,0,0,2.523.991c.887.24,1.536,1.15,2.717.928-1.106-1.642-2.382-3.141-1.918-5.126-.693-.609-1.356-1.11-1.919-1.709a25.423,25.423,0,0,1-1.569-2.013A27.034,27.034,0,0,0-11168.388-13359.706Zm-14.394.467c.033.447.058.8.081,1.157,1.685-.622,3.315-1.225,4.943-1.823l-.092-.339a5.486,5.486,0,0,0-.91-.076A10.452,10.452,0,0,0-11182.781-13359.239Zm-78.433-28.2a32.591,32.591,0,0,0-8.736,3.722,27.818,27.818,0,0,0-6.154,4.676,11.9,11.9,0,0,0-3.577,7.247,14.842,14.842,0,0,0,2.9,10.106,7.018,7.018,0,0,0,2.273,2.092c3.908-1.739,7.532-3.8,9.965-7.468a8.132,8.132,0,0,1-.21-4.067,1.464,1.464,0,0,0-.071-.582c-.118-.585-.271-1.163-.368-1.752a8.033,8.033,0,0,1,2.683-7.641c.321-.29.656-.564.94-.8.437-3.19.538-3.807,2.562-6C-11259.911-13387.718-11260.568-13387.6-11261.214-13387.437Zm8.222-3.109c-1.516.386-1.895.622-2.077,2.155a2.94,2.94,0,0,1-2.139,2.838,2.094,2.094,0,0,0-1.407,1.648,4.375,4.375,0,0,0-.251,1.407,5.231,5.231,0,0,1-2.01,4.727,2.558,2.558,0,0,0-.818,2.508,7.341,7.341,0,0,1-.4,4.429,2.619,2.619,0,0,0,1.069,3.519,23.233,23.233,0,0,0,7.064,3.38,2.568,2.568,0,0,0,1.05.166c2.006-.247,4.006-.538,5.965-.809.28-.5.494-.876.728-1.289-.193-.446-.376-.866-.565-1.293a29.432,29.432,0,0,1-4.029-.04,16.641,16.641,0,0,1-3.641-1.083,6.476,6.476,0,0,1-3.09-2.135,30.872,30.872,0,0,1,3.9,1.134,12.955,12.955,0,0,0,7.052.271,2.177,2.177,0,0,0,1.807-1.963,49.25,49.25,0,0,0-5.576-2.308,14.232,14.232,0,0,1-5.833-3.59,4.348,4.348,0,0,1-.393-.608,39.386,39.386,0,0,1,3.738,1.7c2.714,1.336,5.431,2.68,8.777,2.662a11.2,11.2,0,0,0,1.14-.887,1.546,1.546,0,0,0-.088-2.4,19.723,19.723,0,0,0-2.649-1.82c-1.731-.965-3.515-1.848-5.284-2.748-1.069-.538-1.482-1.485-1.915-2.8,3.843,2.084,7.434,4.029,11.148,6.046a11.3,11.3,0,0,0,1.215-.849,2.127,2.127,0,0,0-.068-3.3q-2.533-2.183-5.071-4.357c-.836-.725-1.668-1.455-2.568-2.236.358-.237.64-.424,1.053-.69a9.363,9.363,0,0,0-4.481-1.545A5.335,5.335,0,0,0-11252.992-13390.546Zm20.284,8.5a5.848,5.848,0,0,0,2.114,1.638,37.419,37.419,0,0,0,12.772,4.006,18.943,18.943,0,0,1,5.546,1.679,4.233,4.233,0,0,1,.663.48c-.88,2.317-1.732,4.567-2.585,6.817l.23.115c1.5-2.486,3-4.977,4.544-7.521-.427-.25-.731-.43-1.032-.615a9.3,9.3,0,0,1-1.8-1.145,12.629,12.629,0,0,0-3.661-2.412,40.683,40.683,0,0,0-10.912-3.271,38.588,38.588,0,0,0-4.388-.3c-.075,0-.151-.006-.228-.006A1.514,1.514,0,0,0-11232.708-13382.051Zm84.211,9.606a5.473,5.473,0,0,1,.961.416c-1.687.788-3.431.774-5.159,1.557,4.3.206,8.161,1.5,12.438,2.378-.619-1.285-1.049-2.358-1.624-3.339a12.278,12.278,0,0,0-8.27-6.311,18.215,18.215,0,0,1-2.169-.643,3.2,3.2,0,0,1-.7-.528c2.9-.342,5.5.332,8.259,1.056-.7-1.712-1.312-3.218-1.938-4.717a32.741,32.741,0,0,1-2.321-7.39c-.544-3.424-1.008-6.857-1.454-10.3a21.841,21.841,0,0,0-5.583-11.923,19.59,19.59,0,0,0-8.473-5.353,5.806,5.806,0,0,0-4.066-.095c-.146.054-.295.084-.42.118a7.018,7.018,0,0,0-4.909-2.467c0,.308-.011.616,0,.921.142,4.182.362,8.363.406,12.549.037,3.705-.129,7.413-.2,11.122-.011.687.02,1.373.03,2.061.8-3.262,1.465-6.511,3.461-9.549-.122,3.065-.261,5.87-.331,8.679a52.59,52.59,0,0,0,.558,8.344,54.523,54.523,0,0,0,1.719,8.293,42.4,42.4,0,0,0,3.056,7.907,12.369,12.369,0,0,1,5.146-2.693,24.133,24.133,0,0,1,5.861-.714A27.733,27.733,0,0,1-11148.5-13372.444Zm-117.738-18.075a13.3,13.3,0,0,0-8.157,2.92,10.606,10.606,0,0,0-3.772,5.837c4.378-4.213,10.008-6.145,15.374-8.621a21.227,21.227,0,0,0-2.579-.15C-11265.659-13390.534-11265.947-13390.528-11266.235-13390.52Zm20.007.328c.1.189.128.315.21.379,1.847,1.5,3.7,3,5.568,4.477a3.134,3.134,0,0,0,1.036.542c1.373.392,2.757.751,4.141,1.1a1.923,1.923,0,0,0,.924.095c.745-.234,1.455-.562,2.176-.85,0-.111-.007-.227-.01-.339-2.825-.788-5.65-1.58-8.679-2.422,1.089-.707,2.1-1.181,2.28-2.365a2.79,2.79,0,0,0-4.08-1.36,4.629,4.629,0,0,1-2.605.653l-.1,0C-11245.627-13390.285-11245.9-13390.228-11246.229-13390.191Zm30.208-1.454a1.224,1.224,0,0,0-.17.284c.606,2.135,1.289,3.556,1.949,4.066.592-.406-.129-.873.152-1.488.192-.173.531-.48.758-.687a1.208,1.208,0,0,1,.572.149.877.877,0,0,0,1.105-.108c-1.428-.883-2.72-1.686-3.985-2.474A2.072,2.072,0,0,0-11216.021-13391.646Zm1.1-38.494a97.974,97.974,0,0,0-8.326,18.48c-1.594,4.849-2.707,9.829-3.817,14.8a6.66,6.66,0,0,0-.067,1.146c.585.156,1.039.3,1.5.4,3.269.656,6.54,1.326,9.818,1.936a4.6,4.6,0,0,1,1.861.7c1.141.778,2.328,1.485,3.472,2.2,1.065-.71.074-1.354.162-2.2a15.518,15.518,0,0,0,2.91.467c4.161.264,8.316.761,12.481.9,3.641.122,7.291.105,10.942.088,1.441-.006,2.883-.013,4.327-.01.423,0,.846-.061,1.225-.091.755-2.335.657-25.262-.1-29.979a9.461,9.461,0,0,0-4.493-1.726c-.122.1-.281.214-.427.346a80,80,0,0,1-7.365,6.069,21.374,21.374,0,0,0-6.611,7.738,5.433,5.433,0,0,1-.353.535c-.419-.822-.737-1.547-1.14-2.213a44.106,44.106,0,0,0-7.359-9.055,41.438,41.438,0,0,1-3.451-3.627,18.157,18.157,0,0,1-4.063-7.887c-.017-.095-.122-.169-.274-.376C-11214.387-13430.989-11214.674-13430.576-11214.925-13430.14Zm-46.591,38.724a4.738,4.738,0,0,0,3.238-.014c-2.386-1.4-4.689-2.95-7.437-3.7a2.424,2.424,0,0,1,1-.331,19.061,19.061,0,0,1,10.645,2.345c.71-.1,1.258-.176,1.807-.244a12.218,12.218,0,0,1,4,.5,22.714,22.714,0,0,0,4.345.629,22.31,22.31,0,0,0,3.857-.633,48.149,48.149,0,0,0,5.19-15.665c1.525,4.767.659,9.518.014,14.295a2.717,2.717,0,0,0,.524-.876c.2-.565.328-1.147.511-1.716,1.525-4.652,2.717-9.416,4.558-13.964,2.182-5.393,4.595-10.682,7.3-15.831.1-.187.151-.4.273-.7a7.269,7.269,0,0,0-1.052.237,13.2,13.2,0,0,1-5.745.717c-1.986-.081-3.976-.037-5.966-.033a5.552,5.552,0,0,0-.886.139c-.217,1.215.527,2.192.521,3.228a32.5,32.5,0,0,0-2.909-1.7,3.454,3.454,0,0,0-2.981-.267,26.128,26.128,0,0,0-8.275,5.535,78.1,78.1,0,0,0-8.95,11.017c-1.093,1.617-2.1,3.3-3.295,4.835-2.229,2.855-4.568,5.623-6.872,8.418-.8.975-1.628,1.925-2.439,2.89.047.078.095.159.146.236.146-.02.291-.026.433-.054a17.83,17.83,0,0,1,3.141-.29A14.138,14.138,0,0,1-11261.516-13391.416Zm51.474-41.549c-.474.091-.887.165-1.351.25a3.951,3.951,0,0,0,.146.887,39.217,39.217,0,0,0,1.732,3.8,30.884,30.884,0,0,0,5.847,7.355,17.889,17.889,0,0,1,5.63,9.775,5.835,5.835,0,0,0,.2.565,28.26,28.26,0,0,1,1.377-3.286,16.279,16.279,0,0,1,2.132-2.858,30.242,30.242,0,0,1,2.544-2.257c-.047-.115-.058-.207-.111-.251a.849.849,0,0,0-.312-.162,12.3,12.3,0,0,1-4.913-2.6c-1.492-1.252-2.89-2.619-4.344-3.915a21.873,21.873,0,0,1-6.632-11.254,8.391,8.391,0,0,0-.314-.791C-11209.132-13436.071-11208.848-13434.228-11210.042-13432.965Zm-.108-24.879a5.241,5.241,0,0,0-.274,1.157c-.135,1.228-.173,2.47-.368,3.685a3.029,3.029,0,0,0,.24,1.851,6,6,0,0,0,1.945,2.463c.477.023.9.048,1.4.074.284,1.205.639,2.349.812,3.52.308,2.087.439,4.2.769,6.286.419,2.646.978,5.265,3.055,7.224.227.217.39.5.6.738a23.549,23.549,0,0,0,5,4.584,6.873,6.873,0,0,0,4.507,1.252,12.735,12.735,0,0,0,2.845-.8,14.445,14.445,0,0,0,7.356-6.658l2.05-4.2a4.176,4.176,0,0,0,.7-1.428,69.238,69.238,0,0,1,3.745-9.809,18.243,18.243,0,0,0,2.257-7c.074-1.59.1-3.17.115-4.832a10.7,10.7,0,0,0-2.829-.148c-2.1.118-4.205.274-6.3.437a2.849,2.849,0,0,1-1.813-.4c-2.842-1.753-5.714-3.447-8.563-5.2a6.4,6.4,0,0,1-1.461-1.2,22.777,22.777,0,0,1-4.372-7.2,5.24,5.24,0,0,0-.419-.677c-.045.405-.085.6-.085.8a9.274,9.274,0,0,0,1.993,5.644,2.3,2.3,0,0,1-.427,3.444,7.719,7.719,0,0,1-1.019.613c-.7.386-1.435.7-2.094,1.144a7.123,7.123,0,0,0-3.455,5.43,22.754,22.754,0,0,1-.437,2.951,14.124,14.124,0,0,1-.8,2.239c-.177.423-.484.745-1.032.562a1.293,1.293,0,0,1-.5-1.377,12.57,12.57,0,0,0-.519-4.953,9.409,9.409,0,0,0-.568-1.31c-.254-.02-.472-.031-.658-.031C-11209.617-13458.972-11209.84-13458.725-11210.15-13457.844Zm18.924-9.369q3.684,2.3,7.393,4.574c.078.044.217-.014.349-.026a42.137,42.137,0,0,0-8.391-5.2A4.536,4.536,0,0,0-11191.227-13467.213Zm4.313-.382c1.952,1.4,3.807,2.937,5.83,4.517-1.293-2.477-9.521-8.313-11.8-8.445C-11190.871-13470.207-11188.842-13468.973-11186.913-13467.595Zm-15.733,3.234a4.7,4.7,0,0,0,1.645-2.2A3.581,3.581,0,0,0-11202.646-13464.36Zm8.814-9.954c.051.169.051.267.1.3a1.843,1.843,0,0,0,.406.228,30.56,30.56,0,0,1,6.692,3.576c1.357.961,2.646,2.023,3.973,3.024a5.16,5.16,0,0,0,2.063,1.086,5.8,5.8,0,0,0-.467-.605,34.554,34.554,0,0,0-5.856-4.835,19.178,19.178,0,0,0-5.1-2.518,5.458,5.458,0,0,0-1.511-.275A2.843,2.843,0,0,0-11193.832-13474.314Zm-8.814,7.751a4.681,4.681,0,0,0,1.645-2.2A3.579,3.579,0,0,0-11202.646-13466.563Zm21.9-2.636a9.983,9.983,0,0,0-2.924-2.537A4.188,4.188,0,0,0-11180.751-13469.2Zm-21.9-.142a4.7,4.7,0,0,0,1.645-2.2A3.578,3.578,0,0,0-11202.646-13469.341Zm-.273-2.453a4.852,4.852,0,0,0,1.874-2.217A3.306,3.306,0,0,0-11202.92-13471.794Zm7.921-5.068c1.55.7,3.079,1.36,4.584,2.067,1.479.693,2.762,1.813,4.514,1.985a2.584,2.584,0,0,0-.446-.453c-1.732-1.052-3.444-2.135-5.214-3.119a7.946,7.946,0,0,0-2.152-.681,2.963,2.963,0,0,0-.63-.1A.789.789,0,0,0-11195-13476.862Zm.7-2.169c1.854.71,3.391,1.8,5.471,2.094a8.053,8.053,0,0,0-4.784-2.193A2.149,2.149,0,0,0-11194.3-13479.031Zm27.257,138.551a1.964,1.964,0,0,1-.446-1.567,6.612,6.612,0,0,1,.118-1.068,3.546,3.546,0,0,0-.511-3.069,4.523,4.523,0,0,1-.46-3.7,8.974,8.974,0,0,0-.261-4.71,3.343,3.343,0,0,1,0-.6,15.1,15.1,0,0,1,.968,1.228,5.938,5.938,0,0,1,.541,4.733,2.653,2.653,0,0,0,.372,2.268,5.3,5.3,0,0,1,.63,4.145,3.682,3.682,0,0,0,.186,2.328,2.471,2.471,0,0,1-.287,2.643A3.323,3.323,0,0,0-11167.042-13340.48Zm-62.53-14.093c.335-1.475.681-2.943,1.053-4.408.818-3.238,1.641-6.477,2.49-9.708.312-1.187.684-2.364,1.072-3.535a13.59,13.59,0,0,1,.688-1.472c.114.04.229.084.348.128-.253,1.073-.5,2.146-.761,3.215-.815,3.363-1.614,6.729-2.467,10.083-.375,1.461-.849,2.9-1.326,4.334a7.055,7.055,0,0,1-1.032,1.945A1.863,1.863,0,0,1-11229.572-13354.573Zm-3.163-3.624c.894-3.877,1.8-7.758,2.765-11.618.375-1.5.9-2.968,1.384-4.442a1.647,1.647,0,0,1,.975-1.131c-.119.877-.18,1.662-.339,2.427-.515,2.452-1.021,4.909-1.607,7.349q-.923,3.832-2,7.623a13.856,13.856,0,0,1-1.039,2.273c-.078.152-.268.25-.478.44A7.1,7.1,0,0,1-11232.735-13358.2Zm-3.177-.335q1.37-6.841,2.794-13.672c.247-1.164.606-2.3.968-3.437a7.415,7.415,0,0,1,.64-1.215c.118.03.24.058.362.088-.132.975-.237,1.955-.4,2.923-.427,2.467-.822,4.943-1.344,7.39-.564,2.643-1.241,5.262-1.918,7.877a3.393,3.393,0,0,1-1.1,1.888A3.789,3.789,0,0,1-11235.912-13358.532Zm71.526-14.873c.464-.437.931-.866,1.408-1.286a6.51,6.51,0,0,1,3.255-1.6,17.233,17.233,0,0,1,6.723.274,2.328,2.328,0,0,1,.413.23c-2.217.321-4.247.562-6.253.927a32.365,32.365,0,0,0-5.907,1.908A3.89,3.89,0,0,1-11164.386-13373.405Zm-48.607-19.378c1.466-.084,1.648.021,2.159,1.36C-11211.663-13391.943-11212.285-13392.336-11212.993-13392.783Zm-48.8-5.6c.971-.062,1.783-.18,2.592-.152a29.276,29.276,0,0,1,7.187.89,14.849,14.849,0,0,1,4.794,2.033c.339.247.63.556,1.056.938C-11248.123-13394.674-11260.555-13397.607-11261.789-13398.386Zm68.049-3.962a30.7,30.7,0,0,1,4.905,6.259C-11189.9-13396.613-11192.7-13400.179-11193.74-13402.348Zm4.026.439a12.813,12.813,0,0,1,4.05,5.438A31.84,31.84,0,0,1-11189.714-13401.908Zm-5.407,3.063a4.19,4.19,0,0,1,1.658,1.726A2.247,2.247,0,0,1-11195.121-13398.846Zm-14.5-.092c-9.062-11.051-9.755-11.652-10.194-13.253,1.739,1.072,11.246,13.013,11.72,14.83A6.36,6.36,0,0,1-11209.626-13398.937Zm23.2-4.307a12.544,12.544,0,0,1,2.612,5.024C-11184.626-13398.646-11186.311-13401.892-11186.426-13403.244Zm-34.092-4.788c2.051,2.67,4.3,5.174,6.276,8.124C-11215.814-13400.68-11220.24-13406.4-11220.518-13408.032Zm13.564,7.359c-1.215-1.573-2.433-3.144-3.6-4.754-.809-1.12-1.536-2.3-2.43-3.651a2.963,2.963,0,0,1,1.462,1.2c1.229,1.61,2.443,3.234,3.668,4.852.453.6.92,1.194,1.377,1.8.254.335.5.677.778,1.065a1.082,1.082,0,0,1-.454.118C-11206.562-13400.048-11206.752-13400.412-11206.953-13400.673Zm-52.015-1.425a8.41,8.41,0,0,1,3.753-.815c2.02-.169,2.957.081,3.772.859-1.194.073-2.362.111-3.516.111C-11256.3-13401.942-11257.634-13401.994-11258.968-13402.1Zm52.181-5.944a13.275,13.275,0,0,1,3.637,5.2C-11204.188-13403.359-11206.179-13406.151-11206.787-13408.042Zm50.637,1.072a41.727,41.727,0,0,0-3.089-3.465,42.315,42.315,0,0,0-3.359-3.024c-1.2-.972-2.483-1.838-3.729-2.751,3.488.994,6.783,2.216,9.061,5.285a19.911,19.911,0,0,1,3.719,7.646C-11154.411-13404.514-11155.216-13405.792-11156.15-13406.97Zm-9.633-1.811c-1.14-.747-2.368-1.356-3.66-2.084,1.8-.21,5.224,1.976,6.959,4.551C-11163.58-13407.143-11164.636-13408.029-11165.783-13408.78Zm-36.092-1.992a32.439,32.439,0,0,0-2.946-3.272c-1.78-1.759-3.654-3.428-5.431-5.19a16.031,16.031,0,0,1-3.752-5.474c-.095-.244-.146-.5-.217-.755.033-.011.067-.023.1-.037a30.7,30.7,0,0,0,1.945,2.673c1.3,1.448,2.67,2.828,4.047,4.205,1.715,1.713,3.488,3.367,5.187,5.1a11.739,11.739,0,0,1,2.771,4.412,4.143,4.143,0,0,1,.2,1.465A31.483,31.483,0,0,0-11201.875-13410.772Zm40.132,1.874c-1.008-.9-2.006-1.811-3.018-2.71a9.3,9.3,0,0,0-5.1-2.382,3.473,3.473,0,0,1-.578-.132c-.067-.018-.115-.095-.23-.193a3.5,3.5,0,0,1,3.2-.1,14.719,14.719,0,0,1,2.961,1.746,16.023,16.023,0,0,1,3.573,3.976,2.454,2.454,0,0,1,.121.527C-11161.219-13408.485-11161.492-13408.675-11161.743-13408.9Zm-30.441-3.786a30.586,30.586,0,0,1,2.795-2.206c.894-.656,1.871-1.2,2.737-1.892.951-.754,1.811-1.617,2.761-2.479a2.526,2.526,0,0,1-.04.693,5.94,5.94,0,0,1-2.192,2.754c-1.138.853-2.335,1.635-3.52,2.43a12.01,12.01,0,0,0-4.1,3.9A4.337,4.337,0,0,1-11192.185-13412.685Zm-48.2-4.239a49.975,49.975,0,0,1-8.835,2.862A12.576,12.576,0,0,1-11240.382-13416.924Zm1.167-3.908a45.855,45.855,0,0,1-7.328,1.942A10.162,10.162,0,0,1-11239.215-13420.832Zm29.806-36.921a5.339,5.339,0,0,1,.311,4.714C-11209.87-13454.623-11209.308-13456.217-11209.409-13457.753Z" transform="translate(11283.71 13481.78)" fill="#77490e" stroke="rgba(0,0,0,0)" stroke-miterlimit="10" stroke-width="1"/><g transform="translate(0.001 153.353)"><path d="M36.332,640.6l-.263,3.031H0V640.6Z" transform="translate(-0.004 -640.6)" fill="#d1aa77"/><path d="M516,640.6v3.031H479.8c.041-1.01.081-2.018.122-3.031Z" transform="translate(-365.274 -640.6)" fill="#d1aa77"/></g></g></svg>