<svg xmlns="http://www.w3.org/2000/svg" width="40.038" height="40.058" viewBox="0 0 40.038 40.058">
  <path d="M19.926,40.7a14.535,14.535,0,0,1-3.153-.358,19.69,19.69,0,0,1-7.157-3.03,20.516,20.516,0,0,1-4.578-4.061,21.04,21.04,0,0,1-3.121-4.7A22.268,22.268,0,0,1,.5,24.675a13.966,13.966,0,0,1-.423-2.616l-.026-.4a10.821,10.821,0,0,1-.037-1.373,11.39,11.39,0,0,1,1.082-4.9,9.717,9.717,0,0,1,5.2-4.81,11.42,11.42,0,0,1,4.292-.819c.524,0,1.05.026,1.583.055l.684.032.121-.169A24.067,24.067,0,0,1,17.79,4.742a21.3,21.3,0,0,1,6.129-3.259A18.276,18.276,0,0,1,26.571.836a5.46,5.46,0,0,1,.675-.077l.292-.02.138-.045.255-.057,1.992,0,.02.009,0,.052.9.126c.349.049.627.088.895.135A10.4,10.4,0,0,1,36.55,3.431a10.514,10.514,0,0,1,3.417,7.056l.071.18-.006.083v2.02c-.02.194-.043.338-.069.478s-.046.263-.06.389a16.64,16.64,0,0,1-.583,2.784,20.875,20.875,0,0,1-1.646,3.815A22.094,22.094,0,0,1,35.032,24a23.439,23.439,0,0,1-4.046,3.728l-.174.125.037.406a11.5,11.5,0,0,1,.034,2.583,10.515,10.515,0,0,1-2.759,6.685,9.685,9.685,0,0,1-4.516,2.676,9.489,9.489,0,0,1-2.369.426h-.008c-.224,0-.427.015-.629.031-.221.015-.446.032-.676.032M3.311,18.377a10.6,10.6,0,0,0-.255,1.945,13.3,13.3,0,0,0,.493,3.808,18.016,18.016,0,0,0,2.729,5.737,18.672,18.672,0,0,0,4.16,4.252A17.469,17.469,0,0,0,14.684,36.5a14.7,14.7,0,0,0,4.971,1.113c.151.008.3.011.447.011a9.5,9.5,0,0,0,3.451-.649,6.433,6.433,0,0,0,1.225-.653l.24-.161-.091-.277c-.12-.36-.24-.706-.387-1.064A12.5,12.5,0,0,0,19.589,28.7a12.221,12.221,0,0,0-4.4-1.814,16.348,16.348,0,0,1-3.24-1.007A16.02,16.02,0,0,1,6.569,22.02,14.819,14.819,0,0,1,4.034,18.3L3.563,17.3Zm7.5-5.548a9.034,9.034,0,0,0-2.158.249,7.221,7.221,0,0,0-2.613,1.128l-.244.171.309.856c.166.461.309.864.469,1.251a12.907,12.907,0,0,0,4.458,5.371A12.674,12.674,0,0,0,15.143,23.7l.218.054c.827.206,1.674.418,2.5.684a15.144,15.144,0,0,1,5.622,3.408,15.4,15.4,0,0,1,3.357,4.536l.446.913.271-.979a8.26,8.26,0,0,0,.281-1.772,13.042,13.042,0,0,0-.9-5.419,7.608,7.608,0,0,0-.3-.722,17.668,17.668,0,0,0-2.613-4.392,20.336,20.336,0,0,0-6.713-5.5,11.134,11.134,0,0,0-1.051-.5,14.772,14.772,0,0,0-4.2-1.111,11.946,11.946,0,0,0-1.256-.069M35.075,6.754a15.258,15.258,0,0,0-3.024,1.251,12.189,12.189,0,0,0-4.728,4.79,14.919,14.919,0,0,0-1.447,4.335l-.034.166.678.912c.354.475.7.935,1.03,1.4A14.87,14.87,0,0,1,29.109,22.3c.251.584.953,2.272.953,2.272l.4-.346a20.692,20.692,0,0,0,4.233-5,14.976,14.976,0,0,0,2.224-6.7,11.332,11.332,0,0,0-.121-2.515,7.207,7.207,0,0,0-1.022-2.7c-.086-.143-.18-.281-.274-.412l-.163-.226ZM28.818,3.729a11.122,11.122,0,0,0-1.771.143,15.568,15.568,0,0,0-5.655,2.164,19.562,19.562,0,0,0-4.6,3.823c-.106.114-.687.779-.687.779l.52.2a21.732,21.732,0,0,1,6.195,3.6l.437.357.172-.536a15.234,15.234,0,0,1,8.179-9.445l.79-.378L31.585,4.1a10.31,10.31,0,0,0-2.767-.374" transform="translate(0 -0.638)" fill="currentcolor"/>
</svg>