<svg xmlns="http://www.w3.org/2000/svg" width="122.694" height="118.339" viewBox="0 0 122.694 118.339"><g transform="translate(0 0)"><path d="M172.452,156.448a49.139,49.139,0,0,1-3.469,4.63,44.758,44.758,0,0,1-14.883,10.4c-6.5,2.746-13.075,2.536-19.709.6a6.915,6.915,0,0,1-1.257-.414c-4.846-2.519-9.238-1.12-13.486,1.548a20.386,20.386,0,0,1-2.229,1.3,63.768,63.768,0,0,1,13.633-11.956,32.619,32.619,0,0,1,17.439-5.406,9.751,9.751,0,0,0-5.864-1.822c-8.655-.687-15.878,2.629-22.226,8.2a63.7,63.7,0,0,0-13.185,16.859,3.556,3.556,0,0,1-1.276,1.476c.736-2.664,1.386-5.355,2.222-7.987,2.739-8.62,6.649-16.566,13.187-23.021a27.7,27.7,0,0,1,22.845-8.241c7.293.594,13.656,3.36,19.591,7.363,2.262,1.525,4.348,3.313,6.523,4.969.632.48,1.3.915,2.144,1.509" transform="translate(-49.758 -66.708)" fill="#385f2f"/><path d="M60.739,47.556c8.96-4.062,14.779-11.025,20.29-18.339,3.031-4.022,6.059-8.05,9.214-11.974,2.565-3.189,5.876-5.541,9.338-7.97A14.191,14.191,0,0,1,103.7,19.16a26.235,26.235,0,0,1-4.512,15.8c-5.462,8.591-12.911,14.471-23.051,16.388-4.808.909-9.511.416-13.72-2.436-.5-.34-.947-.765-1.673-1.359" transform="translate(-28.528 -4.341)" fill="#ae7d3c"/><path d="M94.818,3.884C91.217,6.37,88.1,8.368,85.148,10.6c-4.427,3.343-7.661,7.788-10.8,12.292-3.085,4.421-6.053,8.95-10.021,12.65-2.571,2.4-5.314,4.609-8.074,6.984a12.6,12.6,0,0,1-3.764-7.062,22.458,22.458,0,0,1,1.892-14.485C59.072,10.782,66.77,3.918,77.617.857A18.69,18.69,0,0,1,91.766,2.028c.623.324,1.193.751,1.792,1.122.371.229.753.44,1.259.734M59.278,18.2c-4.865,2.166-7.194,13.479-4.283,17.3.428-2.962.634-5.985,1.349-8.883.705-2.858,1.926-5.587,2.934-8.413" transform="translate(-24.426)" fill="#ae7d3c"/><path d="M0,171.263a40.841,40.841,0,0,1,12.567-8.539,29.24,29.24,0,0,1,10.23-2.533c7.7-.287,13.931,2.822,18.777,8.66,5.13,6.181,7.973,13.476,9.838,21.485-2.384-3.331-4.427-6.583-6.865-9.5-4.273-5.117-9.357-9.176-16.121-10.495a14.443,14.443,0,0,0-9.638,1.116,57.867,57.867,0,0,1,6.139,1.364,36.821,36.821,0,0,1,6.285,2.761,38.264,38.264,0,0,1,5.429,3.77,27.03,27.03,0,0,1,4.615,4.84c-.515-.274-1.035-.54-1.545-.823a9.35,9.35,0,0,0-8.608-.753c-4.49,1.835-9.221,2.584-13.991,1.2a30.582,30.582,0,0,1-16.025-10.7A18.148,18.148,0,0,1,0,171.263" transform="translate(0 -74.987)" fill="#385f2f"/><path d="M11.128,70.638a58.419,58.419,0,0,1,14.21,13.72q3.1,4.308,6.15,8.654a48.046,48.046,0,0,0,16.26,14.557c.614.343,1.22.7,2.1,1.208a14.12,14.12,0,0,1-8.94,4.008,24.416,24.416,0,0,1-12.411-2A36,36,0,0,1,9.063,91.107,22.356,22.356,0,0,1,7.5,77.845a13.582,13.582,0,0,1,3.627-7.207m-1.089,6.574c-2.859,5.829-.156,16.067,4.436,17.653a84.35,84.35,0,0,1-3.068-8.515,87.715,87.715,0,0,1-1.368-9.138" transform="translate(-3.331 -33.069)" fill="#d1aa77"/><path d="M16.2,65.254c4.4-3.73,9.294-4.367,14.862-3.668A19.472,19.472,0,0,0,38.985,76.4c4.77,3.685,10.489,4.348,16.269,3.574,4.613,6.688,5.306,18.378-.362,23.694a38.167,38.167,0,0,1-9.758-8.342c-3.027-3.69-5.865-7.539-8.723-11.365C32.482,78.7,28.4,73.575,23.064,69.662c-2.11-1.546-4.4-2.84-6.863-4.408" transform="translate(-7.609 -28.715)" fill="#d1aa77"/><path d="M125.255,103.717a57.837,57.837,0,0,1-.467-19.786c.922-5.937,1.651-11.9,2.5-17.852a4.824,4.824,0,0,1,.684-1.945c2.2-3.3,4.454-6.561,6.7-9.828.085-.124.28-.172.584-.348a19.317,19.317,0,0,1,4.762,6.48,35.688,35.688,0,0,1,.57,31.015c-2.193,5-5.579,9.028-10.787,11.135a33.783,33.783,0,0,1-4.55,1.129m5.482-4.39c6.153-2.093,11.334-11.312,8.868-15.87-1.323,6.328-4.737,11.28-8.868,15.87" transform="translate(-58.311 -25.261)" fill="#d1aa77"/><path d="M111.917,81.51c-1.688,11.741-4.139,23.259.135,34.753-4.18.316-8.7-2-11.693-5.988,2.722-7.385,1.374-14.63-1.692-21.488l13.25-7.277" transform="translate(-46.343 -38.159)" fill="#d1aa77"/><rect width="47.712" height="3.192" transform="translate(30.268 115.147)" fill="#33372b"/></g></svg>