<svg xmlns="http://www.w3.org/2000/svg" width="27.916" height="41.4" viewBox="0 0 27.916 41.4">
  <path d="M.439,34.983c0-1.131.667-2.742,3.84-3.974a1.41,1.41,0,0,1,1.822.78,1.378,1.378,0,0,1-.792,1.795c-1.693.658-2.06,1.281-2.06,1.4,0,.683,3.508,2.65,10.208,2.65s10.209-1.967,10.209-2.65c0-.11-.34-.7-1.91-1.337a1.378,1.378,0,0,1-.762-1.808,1.412,1.412,0,0,1,1.835-.751c3.013,1.225,3.645,2.8,3.645,3.9,0,3.722-6.747,5.417-13.017,5.417S.439,38.705.439,34.983Zm11.8-.117c-1.846-2.632-3.422-4.848-4.769-6.735C1.287,19.455,0,17.649,0,13.253A13.371,13.371,0,0,1,13.456,0a13.372,13.372,0,0,1,13.46,13.254c0,4.39-1.284,6.191-7.455,14.85-1.349,1.9-2.933,4.116-4.787,6.762a1.451,1.451,0,0,1-.372.368,1.5,1.5,0,0,1-2.063-.368ZM2.965,13.25c0,3.368.685,4.442,6.929,13.192,1.058,1.485,2.151,3.018,3.376,4.756l.186.265,1.272-1.808c.83-1.181,1.589-2.269,2.29-3.2,6.244-8.765,6.93-9.838,6.93-13.2A10.356,10.356,0,0,0,13.585,3.042h-.13A10.453,10.453,0,0,0,2.965,13.25ZM7.983,13.2a5.439,5.439,0,0,1,5.474-5.39h.228a5.48,5.48,0,0,1,3.648,1.577,5.319,5.319,0,0,1,1.6,3.815,5.476,5.476,0,0,1-10.95,0Zm2.968.069a2.49,2.49,0,0,0,2.506,2.468h.228v-.02a2.466,2.466,0,1,0-2.734-2.448Z" transform="translate(0.5 0.5)" fill="currentcolor" stroke="rgba(0,0,0,0)" stroke-miterlimit="10" stroke-width="1"/>
</svg>