<svg xmlns="http://www.w3.org/2000/svg" width="41.129" height="39.732" viewBox="0 0 41.129 39.732">
  <path d="M16,38.532c-1.119,0-1.578-.488-1.589-1.621-.011-1.283-.014-2.569,0-3.852a12.909,12.909,0,0,1,.163-1.372,19.623,19.623,0,0,0-4.052-7.5,1.455,1.455,0,0,1-.1-2.059.541.541,0,0,1,.038-.04c1.176-1.811,2.368-3.611,3.549-5.418q2.247-3.432,4.492-6.855a4.8,4.8,0,0,1,.608-.805A1.27,1.27,0,0,1,21,9.01a4.151,4.151,0,0,1,.564.714q4.017,6.138,8.024,12.287c.693,1.063.636,1.448-.2,2.405a18.6,18.6,0,0,0-3.728,6.877c-.049.16-.106.319-.145.419l.009-.011a10.1,10.1,0,0,1,.181,1.234q.029,2.028,0,4.056c-.012,1.055-.489,1.535-1.566,1.54q-2.035.012-4.069.012T16,38.532Zm1.167-2.919a30.53,30.53,0,0,0,5.8-.071,2.612,2.612,0,0,0-.093-1.228h-5.71Zm-3.93-12.6a23.848,23.848,0,0,1,4.214,8.379h5.213a22.877,22.877,0,0,1,4.172-8.362,63.617,63.617,0,0,0-5.375-7.94v3.7a4.278,4.278,0,1,1-5.409,5.534,4.348,4.348,0,0,1-.088-2.688,4.261,4.261,0,0,1,2.68-2.837v-3.75C16.736,17.633,15,20.3,13.237,23.01Zm5.339-.193a1.651,1.651,0,0,0,1.483,1.492v0a1.681,1.681,0,0,0,1.488-1.5c-.338-.977-.784-1.422-1.452-1.449h-.051C19.37,21.367,18.889,21.847,18.576,22.816ZM1.505,22.753a1.357,1.357,0,0,1-1.495-1.2,1.312,1.312,0,0,1,0-.316C0,20.458,0,19.679.007,18.9.019,17.772.3,17.44,1.425,17.188a1.421,1.421,0,0,0,.256-.145A18.78,18.78,0,0,1,9.9,4.463c.01-.1.025-.135.011-.144a.142.142,0,0,0-.091-.039H5.4A3.135,3.135,0,0,1,2.778,5.692,2.785,2.785,0,0,1,.812,4.778,2.737,2.737,0,0,1,.827.9C.859.865.892.833.927.8c1.3-1.241,2.861-1.042,4.459.588H17.175c.042-.121.089-.241.128-.364A1.4,1.4,0,0,1,18.756.006c.747-.012,1.493,0,2.239,0,1.221,0,1.509.2,1.963,1.382H34.87A3.429,3.429,0,0,1,35.38.75a2.731,2.731,0,0,1,3.853.1c.02.02.04.043.061.065a2.705,2.705,0,0,1,.047,3.835c-.021.024-.045.046-.068.068a2.745,2.745,0,0,1-3.87.166l-.044-.04c-.222-.206-.436-.422-.687-.666h-4.6c.886.724,1.7,1.332,2.433,2.021a21.735,21.735,0,0,1,2.144,2.295A18.7,18.7,0,0,1,36.383,11.2a19.877,19.877,0,0,1,1.269,2.85c.347.974.568,2,.857,3.042.1.029.218.072.342.1.872.206,1.232.593,1.258,1.449.011.366.018.74.019,1.116v.388c0,.378-.008.757-.019,1.132a1.334,1.334,0,0,1-1.194,1.462,1.494,1.494,0,0,1-.25,0c-.984.025-1.969.026-2.951,0a1.222,1.222,0,0,1-1.289-1.15,1.08,1.08,0,0,1,0-.119c-.035-.979-.012-1.96-.009-2.941a1.5,1.5,0,0,1,1.055-1.4,4.579,4.579,0,0,0-.082-.883A15.881,15.881,0,0,0,23.851,4.713a5.5,5.5,0,0,0-.936-.1,1.646,1.646,0,0,1-1.869,1.07,16.42,16.42,0,0,0-2.034,0,1.568,1.568,0,0,1-1.779-1.033,6.044,6.044,0,0,0-2.752.651A15.759,15.759,0,0,0,4.772,16.111a8.442,8.442,0,0,0-.154.951c.16.107.322.208.479.32a1.392,1.392,0,0,1,.609,1.211c0,.912.015,1.825,0,2.738a1.28,1.28,0,0,1-1.117,1.426,1.236,1.236,0,0,1-.336,0q-.694.014-1.389.015Q2.185,22.768,1.505,22.753Z" transform="translate(0.5 0.689)" fill="currentcolor" stroke="rgba(0,0,0,0)" stroke-miterlimit="10" stroke-width="1"/>
</svg>