<svg xmlns="http://www.w3.org/2000/svg" width="39.952" height="35.64" viewBox="0 0 39.952 35.64">
  <path d="M39.6,15.225,25.332,3.084v0L21.709,0,17.866,3.3,3.817,15.225,1.733,17.012l2.035,2.68a.346.346,0,0,0,.1-.066l1.754-1.489v17.5H18.094v-9.81H24.91v9.81H37.5V32.893a.124.124,0,0,0,.017-.083V18.219l1.621,1.241.43.331,2.118-2.779ZM34.208,32.132H28.484V25.2a.149.149,0,0,0-.017-.083v-2.8H14.852v9.81H9.062V15.457a.83.83,0,0,0-.033-.2L17.8,7.863,21.65,4.619h.035l3.54,3.013,8.983,7.66Z" transform="translate(-1.733)" fill="currentcolor"/>
</svg>