<svg xmlns="http://www.w3.org/2000/svg" width="124.03" height="119.34" viewBox="0 0 124.03 119.34">
  <path d="M30.268,118.338v-3.191h21c-2.323-3.26-4.331-6.439-6.721-9.3-4.273-5.117-9.357-9.176-16.12-10.495a14.443,14.443,0,0,0-9.639,1.117,57.8,57.8,0,0,1,6.139,1.364,36.812,36.812,0,0,1,6.285,2.76,38.247,38.247,0,0,1,5.43,3.77,27.015,27.015,0,0,1,4.614,4.84c-.515-.274-1.035-.54-1.545-.823a9.347,9.347,0,0,0-8.608-.753c-4.49,1.835-9.22,2.584-13.99,1.2a30.582,30.582,0,0,1-16.025-10.7A18.053,18.053,0,0,1,0,96.276a40.833,40.833,0,0,1,12.568-8.538A29.219,29.219,0,0,1,22.8,85.2c7.7-.287,13.931,2.821,18.777,8.66,5.087,6.129,7.926,13.353,9.791,21.282h4.816c.736-2.664,1.386-5.354,2.222-7.987,2.74-8.619,6.649-16.565,13.188-23.021A27.7,27.7,0,0,1,94.435,75.9c7.293.594,13.657,3.36,19.591,7.362,2.262,1.525,4.348,3.314,6.523,4.969.632.481,1.3.915,2.144,1.51a49.149,49.149,0,0,1-3.47,4.63,44.757,44.757,0,0,1-14.882,10.4c-6.5,2.747-13.075,2.536-19.708.6a6.984,6.984,0,0,1-1.258-.414c-4.846-2.519-9.237-1.12-13.486,1.547a20.352,20.352,0,0,1-2.228,1.3A63.757,63.757,0,0,1,81.293,95.841a32.615,32.615,0,0,1,17.439-5.405,9.746,9.746,0,0,0-5.864-1.822c-8.654-.688-15.878,2.629-22.226,8.2a63.7,63.7,0,0,0-13.185,16.859,3.569,3.569,0,0,1-1.276,1.476h21.8v3.191Zm-5.1-40.622A36,36,0,0,1,5.732,58.037,22.357,22.357,0,0,1,4.171,44.775,13.583,13.583,0,0,1,7.8,37.568a58.426,58.426,0,0,1,14.21,13.72q3.1,4.308,6.15,8.654A48.047,48.047,0,0,0,44.417,74.5c.615.342,1.22.7,2.1,1.208a14.126,14.126,0,0,1-8.94,4.008q-1.241.119-2.467.12A24.305,24.305,0,0,1,25.169,77.716ZM11.144,61.795A84.233,84.233,0,0,1,8.077,53.28a87.423,87.423,0,0,1-1.368-9.139C3.849,49.972,6.552,60.208,11.144,61.795Zm55.335-3.124c.922-5.937,1.651-11.9,2.5-17.852a4.814,4.814,0,0,1,.684-1.946c2.2-3.3,4.454-6.561,6.7-9.828.086-.123.28-.172.584-.347a19.31,19.31,0,0,1,4.763,6.48,35.685,35.685,0,0,1,.569,31.015c-2.192,5-5.579,9.028-10.786,11.135a33.841,33.841,0,0,1-4.55,1.13A57.826,57.826,0,0,1,66.479,58.671Zm5.949,15.4C78.58,71.974,83.761,62.754,81.3,58.2,79.972,64.525,76.558,69.476,72.428,74.066Zm-18.41-1.951c2.722-7.385,1.373-14.63-1.693-21.488l13.251-7.277c-1.688,11.741-4.139,23.26.135,34.754q-.381.029-.765.029C60.986,78.132,56.833,75.863,54.017,72.115ZM37.524,66.606C34.5,62.917,31.659,59.068,28.8,55.242c-3.929-5.26-8.008-10.382-13.346-14.3-2.11-1.546-4.4-2.84-6.863-4.408,4.4-3.73,9.294-4.368,14.863-3.667a19.47,19.47,0,0,0,7.922,14.81c4.77,3.685,10.489,4.348,16.268,3.574,4.613,6.689,5.306,18.378-.362,23.694A38.157,38.157,0,0,1,37.524,66.606Zm-3.64-22.033c-.5-.339-.947-.764-1.673-1.359C41.171,39.152,46.99,32.189,52.5,24.876c3.031-4.023,6.06-8.051,9.214-11.975,2.565-3.189,5.876-5.54,9.338-7.97a14.194,14.194,0,0,1,4.114,9.886,26.242,26.242,0,0,1-4.513,15.8C65.192,39.212,57.744,45.093,47.6,47.01a22.693,22.693,0,0,1-4.213.414A16.554,16.554,0,0,1,33.884,44.573Zm-5.825-9.114a22.458,22.458,0,0,1,1.892-14.485C34.647,10.782,42.345,3.918,53.192.857A18.689,18.689,0,0,1,67.341,2.028c.624.325,1.193.752,1.793,1.122.371.229.752.44,1.259.734-3.6,2.486-6.721,4.484-9.67,6.711-4.426,3.343-7.661,7.788-10.8,12.292-3.085,4.421-6.053,8.95-10.022,12.649-2.571,2.4-5.314,4.609-8.074,6.984A12.6,12.6,0,0,1,28.059,35.459Zm2.509.037c.428-2.961.635-5.985,1.35-8.882A88.973,88.973,0,0,1,34.853,18.2C29.987,20.367,27.658,31.68,30.569,35.5Z" transform="translate(0.629 0.502)" fill="currentcolor" stroke="rgba(0,0,0,0)" stroke-miterlimit="10" stroke-width="1"/>
</svg>