<svg xmlns="http://www.w3.org/2000/svg" width="40.952" height="40.952" viewBox="0 0 40.952 40.952">
  <path d="M0,19.977A19.977,19.977,0,0,1,19.976,0h0A19.976,19.976,0,1,1,0,19.977Zm3.746,0A16.231,16.231,0,1,0,19.976,3.746,16.23,16.23,0,0,0,3.746,19.977Zm13.106,9.988a1.873,1.873,0,0,1,0-3.746h1.26V21.224h-.625a1.872,1.872,0,1,1,0-3.745h2.489a1.874,1.874,0,0,1,1.874,1.872v6.867h1.244a1.873,1.873,0,1,1,0,3.746Zm.636-17.472a2.489,2.489,0,1,1,2.489,2.489A2.489,2.489,0,0,1,17.488,12.493Z" transform="translate(0.5 0.499)" fill="currentcolor" stroke="rgba(0,0,0,0)" stroke-miterlimit="10" stroke-width="1"/>
</svg>