<svg xmlns="http://www.w3.org/2000/svg" width="76.036" height="30.039" viewBox="0 0 76.036 30.039">
  <path id="lab" d="M52.834,29.039V0h10.13a16.968,16.968,0,0,1,4.682.573,9.693,9.693,0,0,1,3.3,1.6,6.678,6.678,0,0,1,1.977,2.392,6.747,6.747,0,0,1,.659,2.967,7.068,7.068,0,0,1-1.023,3.644,5.164,5.164,0,0,1-2.029,2.186,7.627,7.627,0,0,1,1.387.884,7.635,7.635,0,0,1,1.769,1.753,6.959,6.959,0,0,1,1.025,2.081,7.868,7.868,0,0,1,.33,2.255,7.772,7.772,0,0,1-3.382,6.7,10.652,10.652,0,0,1-3.418,1.527,15.778,15.778,0,0,1-3.887.485Zm5.9-5.552h4.926a7.978,7.978,0,0,0,4.061-.78,2.713,2.713,0,0,0,1.249-2.482,3.231,3.231,0,0,0-.347-1.612,2.656,2.656,0,0,0-1.006-.989,4.783,4.783,0,0,0-1.7-.538,16.338,16.338,0,0,0-2.393-.157H58.729Zm0-12.142h3.921a7.143,7.143,0,0,0,3.746-.728A2.474,2.474,0,0,0,67.507,8.4a2.454,2.454,0,0,0-1.059-2.046,6.581,6.581,0,0,0-3.8-.8H58.729ZM42.358,29.039l-2.394-6.628H28.931l-2.359,6.628H20.362L31.117,0h6.7L48.567,29.039ZM30.908,16.826h7.078L34.448,6.939ZM0,29.039V0H5.932V23.487H18.872v5.552Z" transform="translate(0.5 0.5)" fill="#1a1818" stroke="rgba(0,0,0,0)" stroke-miterlimit="10" stroke-width="1"/>
</svg>