<svg xmlns="http://www.w3.org/2000/svg" width="100.852" height="176.363" viewBox="0 0 100.852 176.363"><g transform="translate(429.5 -11450.5)"><path d="M0,146.554V0H91.046V146.554Zm3.581-3.58H87.466V3.581H3.581ZM55.939,98.64a27.948,27.948,0,1,1,8.863-5.7l3.08,4.482L59.2,103.385ZM35.15,57.613A18.317,18.317,0,0,0,50.274,90.4L41.414,77.506,50.1,71.538l9.145,13.307A18.316,18.316,0,0,0,35.15,57.613Z" transform="translate(-429 11451)" fill="#fff" stroke="rgba(0,0,0,0)" stroke-miterlimit="10" stroke-width="1"/><path d="M157.468,18.162V0h11.8V3.472h-8.114V7.1h7.356v3.515h-7.356V14.69h8.158v3.472Zm-8.461,0V10.611h-7.876v7.551h-3.688V0h3.688V7.1h7.876V0h3.711V18.162Zm-24.148,0V3.472H119V0h15.428V3.472h-5.859v14.69Z" transform="translate(-527.797 11467.359)" fill="#fff" stroke="rgba(0,0,0,0)" stroke-miterlimit="10" stroke-width="1"/><path d="M152.044,18.162V0h6.336a10.608,10.608,0,0,1,2.929.358,6.062,6.062,0,0,1,2.061,1,4.177,4.177,0,0,1,1.237,1.5,4.22,4.22,0,0,1,.412,1.856,4.429,4.429,0,0,1-.639,2.279,3.236,3.236,0,0,1-1.27,1.367,4.771,4.771,0,0,1,.868.553,4.8,4.8,0,0,1,1.107,1.1,4.371,4.371,0,0,1,.64,1.3,4.92,4.92,0,0,1,.206,1.41,4.861,4.861,0,0,1-2.115,4.189,6.663,6.663,0,0,1-2.137.955,9.863,9.863,0,0,1-2.431.3Zm3.687-3.472h3.082a4.988,4.988,0,0,0,2.539-.488,1.7,1.7,0,0,0,.781-1.553,2.021,2.021,0,0,0-.217-1.008,1.661,1.661,0,0,0-.629-.618,2.991,2.991,0,0,0-1.064-.337,10.21,10.21,0,0,0-1.5-.1h-3Zm0-7.594h2.452a4.473,4.473,0,0,0,2.344-.455,1.548,1.548,0,0,0,.694-1.39,1.536,1.536,0,0,0-.661-1.28,4.121,4.121,0,0,0-2.376-.5h-2.452ZM145.492,18.162l-1.5-4.145h-6.9l-1.474,4.145h-3.885L138.461,0h4.188l6.727,18.162Zm-7.161-7.638h4.427L140.545,4.34ZM119,18.162V0h3.71V14.69H130.8v3.472Z" transform="translate(-524.086 11565.372)" fill="#fff" stroke="rgba(0,0,0,0)" stroke-miterlimit="10" stroke-width="1"/><path d="M149.311,17.814a9.328,9.328,0,0,1-4.3.933,9.769,9.769,0,0,1-3.8-.716,8.954,8.954,0,0,1-4.925-4.958,9.712,9.712,0,0,1-.695-3.7,9.738,9.738,0,0,1,.695-3.688,8.873,8.873,0,0,1,1.952-2.973A9.274,9.274,0,0,1,141.217.726a10.289,10.289,0,0,1,7.594,0,9.245,9.245,0,0,1,2.973,1.985,8.851,8.851,0,0,1,1.954,2.973,9.738,9.738,0,0,1,.695,3.688,9.788,9.788,0,0,1-.8,3.992,8.051,8.051,0,0,1-2.061,2.908l2.734,2.886-1.91,1.931ZM142.824,3.948a5.058,5.058,0,0,0-1.759,1.172,5.5,5.5,0,0,0-1.16,1.833,6.565,6.565,0,0,0-.424,2.419,6.562,6.562,0,0,0,.424,2.419,5.492,5.492,0,0,0,1.16,1.834,5.213,5.213,0,0,0,1.759,1.183,5.662,5.662,0,0,0,2.191.423,5.2,5.2,0,0,0,1.649-.2l-1.735-1.888,1.931-1.844,2.17,2.279A4.778,4.778,0,0,0,150.1,11.9a6.5,6.5,0,0,0,.468-2.528,6.546,6.546,0,0,0-.423-2.419,5.5,5.5,0,0,0-1.162-1.833,5.06,5.06,0,0,0-1.757-1.172,5.859,5.859,0,0,0-2.214-.412A5.792,5.792,0,0,0,142.824,3.948Zm15.165,14.539V.325H161.7v14.69h8.093v3.472Zm-33.13,0V3.8H119V.325h15.428V3.8h-5.859V18.486Z" transform="translate(-527.873 11605.054)" fill="#fff" stroke="rgba(0,0,0,0)" stroke-miterlimit="10" stroke-width="1"/><path d="M110.3.019a3.249,3.249,0,0,1,1.564.411,2.92,2.92,0,0,1,1.188,1.176,3.2,3.2,0,0,1,.007,3.176,2.965,2.965,0,0,1-1.176,1.178,3.2,3.2,0,0,1-3.165,0,2.972,2.972,0,0,1-1.178-1.178,3.183,3.183,0,0,1,.006-3.176A2.937,2.937,0,0,1,108.738.43,3.254,3.254,0,0,1,110.3.019m0,.526a2.722,2.722,0,0,0-1.3.344,2.463,2.463,0,0,0-.992.983A2.641,2.641,0,0,0,108,4.518a2.5,2.5,0,0,0,.984.982,2.649,2.649,0,0,0,2.639,0,2.47,2.47,0,0,0,.982-.982,2.655,2.655,0,0,0-.006-2.646A2.443,2.443,0,0,0,111.6.889a2.72,2.72,0,0,0-1.3-.344m-1.4,4.414V1.536h1.176a2.871,2.871,0,0,1,.872.095.844.844,0,0,1,.43.331.875.875,0,0,1,.161.5.913.913,0,0,1-.268.654,1.06,1.06,0,0,1-.711.311.941.941,0,0,1,.291.182,3.866,3.866,0,0,1,.506.678l.417.67h-.675l-.3-.54a2.762,2.762,0,0,0-.578-.8.708.708,0,0,0-.441-.118h-.326V4.958Zm.552-1.927h.67a1.08,1.08,0,0,0,.655-.143.491.491,0,0,0,.09-.65.5.5,0,0,0-.233-.18A1.738,1.738,0,0,0,110.087,2h-.628Z" transform="translate(-442.127 11450.998)" fill="#fff"/></g></svg>