<svg xmlns="http://www.w3.org/2000/svg" width="100.852" height="176.363" viewBox="0 0 100.852 176.363">
  <g transform="translate(429.5 -11450.5)">
    <path d="M0,146.554V0H91.046V146.554Zm3.581-3.58H87.466V3.581H3.581ZM55.94,98.639a27.947,27.947,0,1,1,8.862-5.7l3.082,4.483L59.2,103.385ZM35.151,57.613A18.317,18.317,0,0,0,50.275,90.4l-8.86-12.891L50.1,71.538l9.144,13.306A18.315,18.315,0,0,0,35.151,57.613Z" transform="translate(-429 11451)" fill="currentcolor" stroke="rgba(0,0,0,0)" stroke-miterlimit="10" stroke-width="1"/>
    <path d="M38.468,18.162V0h11.8V3.472H42.156V7.1h7.357v3.515H42.156V14.69h8.159v3.472Zm-8.461,0V10.611H22.131v7.551H18.442V0h3.689V7.1h7.876V0h3.71V18.162Zm-24.148,0V3.472H0V0H15.428V3.472H9.569v14.69Z" transform="translate(-408.797 11467.359)" fill="currentcolor" stroke="rgba(0,0,0,0)" stroke-miterlimit="10" stroke-width="1"/>
    <path d="M33.044,18.162V0H39.38a10.613,10.613,0,0,1,2.929.358,6.063,6.063,0,0,1,2.061,1,4.177,4.177,0,0,1,1.237,1.5,4.22,4.22,0,0,1,.412,1.856,4.421,4.421,0,0,1-.64,2.279A3.23,3.23,0,0,1,44.11,8.355a4.77,4.77,0,0,1,.868.553A4.775,4.775,0,0,1,46.084,10a4.352,4.352,0,0,1,.641,1.3,4.921,4.921,0,0,1,.206,1.41A4.861,4.861,0,0,1,44.816,16.9a6.662,6.662,0,0,1-2.138.955,9.868,9.868,0,0,1-2.431.3Zm3.687-3.472h3.081a4.99,4.99,0,0,0,2.54-.488,1.7,1.7,0,0,0,.781-1.553,2.021,2.021,0,0,0-.217-1.008,1.661,1.661,0,0,0-.629-.618,2.991,2.991,0,0,0-1.064-.337,10.218,10.218,0,0,0-1.5-.1h-3Zm0-7.594h2.452a4.467,4.467,0,0,0,2.343-.455,1.547,1.547,0,0,0,.695-1.39,1.535,1.535,0,0,0-.662-1.28,4.116,4.116,0,0,0-2.375-.5H36.732ZM26.492,18.162l-1.5-4.145h-6.9l-1.475,4.145H12.735L19.462,0h4.188l6.727,18.162Zm-7.161-7.638h4.427L21.545,4.34ZM0,18.162V0H3.71V14.69H11.8v3.472Z" transform="translate(-405.086 11565.372)" fill="currentcolor" stroke="rgba(0,0,0,0)" stroke-miterlimit="10" stroke-width="1"/>
    <path d="M30.311,17.814a9.331,9.331,0,0,1-4.3.933,9.769,9.769,0,0,1-3.8-.716,8.946,8.946,0,0,1-4.925-4.958,9.694,9.694,0,0,1-.695-3.7,9.72,9.72,0,0,1,.695-3.688,8.871,8.871,0,0,1,1.951-2.973A9.288,9.288,0,0,1,22.217.726a10.289,10.289,0,0,1,7.594,0,9.245,9.245,0,0,1,2.973,1.985,8.849,8.849,0,0,1,1.953,2.973,9.72,9.72,0,0,1,.695,3.688,9.773,9.773,0,0,1-.8,3.992,8.038,8.038,0,0,1-2.06,2.908L35.3,19.159l-1.91,1.931ZM23.824,3.948A5.058,5.058,0,0,0,22.065,5.12a5.5,5.5,0,0,0-1.16,1.833,6.565,6.565,0,0,0-.424,2.419,6.562,6.562,0,0,0,.424,2.419,5.492,5.492,0,0,0,1.16,1.834,5.213,5.213,0,0,0,1.759,1.183,5.659,5.659,0,0,0,2.191.423,5.2,5.2,0,0,0,1.649-.2l-1.735-1.888L27.86,11.3l2.17,2.279A4.778,4.778,0,0,0,31.1,11.9a6.5,6.5,0,0,0,.468-2.528,6.547,6.547,0,0,0-.423-2.419A5.5,5.5,0,0,0,29.985,5.12a5.059,5.059,0,0,0-1.757-1.172,5.863,5.863,0,0,0-2.214-.412A5.789,5.789,0,0,0,23.824,3.948ZM38.989,18.487V.325H42.7v14.69h8.093v3.472Zm-33.13,0V3.8H0V.325H15.428V3.8H9.569V18.486Z" transform="translate(-408.873 11605.054)" fill="currentcolor" stroke="rgba(0,0,0,0)" stroke-miterlimit="10" stroke-width="1"/>
    <path d="M110.3.019a3.249,3.249,0,0,1,1.564.411,2.92,2.92,0,0,1,1.188,1.176,3.2,3.2,0,0,1,.007,3.176,2.965,2.965,0,0,1-1.176,1.178,3.2,3.2,0,0,1-3.165,0,2.972,2.972,0,0,1-1.178-1.178,3.183,3.183,0,0,1,.006-3.176A2.937,2.937,0,0,1,108.738.43,3.254,3.254,0,0,1,110.3.019m0,.526a2.722,2.722,0,0,0-1.3.344,2.463,2.463,0,0,0-.992.983A2.641,2.641,0,0,0,108,4.518a2.5,2.5,0,0,0,.984.982,2.649,2.649,0,0,0,2.639,0,2.47,2.47,0,0,0,.982-.982,2.655,2.655,0,0,0-.006-2.646A2.443,2.443,0,0,0,111.6.889a2.72,2.72,0,0,0-1.3-.344m-1.4,4.414V1.536h1.176a2.871,2.871,0,0,1,.872.095.844.844,0,0,1,.43.331.875.875,0,0,1,.161.5.913.913,0,0,1-.268.654,1.06,1.06,0,0,1-.711.311.941.941,0,0,1,.291.182,3.866,3.866,0,0,1,.506.678l.417.67h-.675l-.3-.54a2.762,2.762,0,0,0-.578-.8.708.708,0,0,0-.441-.118h-.326V4.958Zm.552-1.927h.67a1.08,1.08,0,0,0,.655-.143.491.491,0,0,0,.09-.65.5.5,0,0,0-.233-.18A1.738,1.738,0,0,0,110.087,2h-.628Z" transform="translate(-442.127 11450.998)" fill="currentcolor"/>
  </g>
</svg>