<svg xmlns="http://www.w3.org/2000/svg" xmlns:xlink="http://www.w3.org/1999/xlink" width="388" height="535" viewBox="0 0 388 535"><defs><clipPath id="a"><rect width="388" height="535" transform="translate(0 1334.91)" fill="#fff" stroke="#707070" stroke-width="1"/></clipPath></defs><g transform="translate(0 -1334.91)" clip-path="url(#a)"><path d="M373.642,298.173c-2.589,24.016-15.929,38.52-36.605,39.789-28.467,1.756-45.188-4.232-58.62-9.038-8.784-3.145-16.382-5.866-25.137-5.866a48.444,48.444,0,0,0-16.169,2.948c-14.447,5.036-27.176,2.885-32.427-5.484-7.019-11.19.688-29.769,20.617-49.7,14.479-14.485,14.569-31.174,14.648-45.9.075-14.695.152-28.577,13.982-38.607,9.373-6.8,14.81-2.236,25.643,6.857,10.766,9.036,25.509,21.413,52.715,29.119,28.747,8.144,44.591,45.814,41.353,75.883m-40.729-78.092c-26.729-7.572-41.259-19.767-51.866-28.67-10.623-8.914-17.637-14.808-28.465-6.956-14.774,10.715-14.847,25.162-14.932,40.457-.075,14.977-.158,30.467-13.976,44.285-20.733,20.741-28.563,40.388-20.934,52.549,5.838,9.308,19.629,11.833,35.125,6.43,16.035-5.592,26.514-1.838,39.781,2.91,11.966,4.282,26.5,9.486,49.472,9.486q4.773,0,10.057-.317c21.584-1.326,36.067-16.965,38.747-41.834,3.342-31-13.145-69.881-43.009-78.34m56.029,84.738c-3.056,28.366-18.82,45.493-43.255,46.993-33.543,2.065-53.231-4.985-69.05-10.646-10.317-3.694-19.237-6.887-29.517-6.887a56.773,56.773,0,0,0-18.95,3.456c-17.09,5.961-32.165,3.395-38.39-6.536-8.313-13.251.763-35.206,24.282-58.729,16.979-16.983,17.08-35.73,17.178-53.858.091-17.346.176-33.728,16.532-45.59,11.161-8.089,18-2.347,30.418,8.077,12.654,10.621,29.982,25.168,61.952,34.223,33.925,9.606,52.622,54.033,48.8,89.5m-48.173-91.708c-31.5-8.922-48.607-23.285-61.1-33.773-12.422-10.429-20.632-17.318-33.239-8.177-17.3,12.544-17.391,29.493-17.486,47.436-.1,17.665-.191,35.931-16.5,52.248-24.329,24.333-33.525,47.353-24.605,61.576,6.82,10.869,22.948,13.807,41.091,7.482,18.934-6.6,31.294-2.175,46.94,3.423,14.065,5.036,31.147,11.151,58.139,11.149q5.619,0,11.823-.372c25.285-1.553,42.258-19.887,45.4-49.04,3.917-36.4-15.419-82.031-50.457-91.954m63.474,98.354c-3.523,32.711-21.716,52.465-49.909,54.2-38.611,2.37-61.276-5.738-79.481-12.254-11.844-4.24-22.092-7.909-33.889-7.909a65.218,65.218,0,0,0-21.738,3.961c-19.738,6.879-37.145,3.9-44.354-7.586-9.606-15.314.843-40.644,27.951-67.761,19.478-19.48,19.592-41.005,19.7-61.82.106-19.992.207-38.875,19.093-52.571,12.936-9.385,20.845-2.749,35.192,9.3,14.54,12.205,34.455,28.918,71.188,39.324,39.091,11.076,60.644,62.26,56.244,103.119M348.622,206.138c-36.258-10.272-55.954-26.8-70.337-38.875-14.731-12.368-23.625-19.834-38.019-9.4-19.823,14.378-19.925,33.826-20.039,54.417-.106,20.351-.217,41.4-19.025,60.21-27.919,27.925-38.49,54.319-28.278,70.6,7.8,12.43,26.272,15.781,47.058,8.536,21.83-7.608,36.069-2.514,54.1,3.939,16.16,5.785,35.793,12.812,66.813,12.81,4.3,0,8.824-.134,13.584-.426,28.987-1.783,48.445-22.806,52.047-56.246,4.5-41.787-17.689-94.179-57.9-105.57m70.922,111.97c-4,37.06-24.607,59.442-56.561,61.4-43.687,2.68-69.318-6.491-89.913-13.862-13.377-4.788-24.946-8.93-38.266-8.93a73.511,73.511,0,0,0-24.52,4.471c-22.386,7.8-42.132,4.41-50.321-8.64-10.9-17.375.924-46.079,31.625-76.788,21.972-21.98,22.1-46.28,22.23-69.783.118-22.64.232-44.023,21.639-59.548,14.721-10.674,23.693-3.151,39.974,10.514,16.428,13.787,38.928,32.672,80.421,44.427,44.268,12.542,68.675,70.486,63.694,116.736M356.474,199.163c-41.017-11.62-63.3-30.321-79.568-43.976-16.6-13.935-26.62-22.345-42.794-10.615-22.351,16.207-22.467,38.157-22.593,61.4-.122,23.038-.246,46.857-21.555,68.171-31.509,31.519-43.448,61.286-31.941,79.631,8.776,13.992,29.59,17.754,53.02,9.588,24.731-8.621,40.851-2.851,61.257,4.453,18.26,6.534,40.441,14.475,75.481,14.475q7.285,0,15.342-.483c32.7-2.008,54.642-25.728,58.707-63.45,5.078-47.178-19.97-106.33-65.355-119.189m78.37,125.587c-4.459,41.409-27.5,66.419-63.215,68.612-48.747,2.995-77.359-7.243-100.34-15.47-14.908-5.334-27.8-9.949-42.64-9.949a81.86,81.86,0,0,0-27.31,4.977c-25.023,8.723-47.115,4.918-56.283-9.691-12.189-19.438,1-51.515,35.29-85.814,24.475-24.479,24.619-51.558,24.758-77.743.136-25.29.262-49.176,24.2-66.532,16.5-11.972,26.538-3.549,44.75,11.736,18.313,15.373,43.4,36.427,89.649,49.529,49.448,14,76.707,78.705,71.146,130.346M364.326,192.193c-45.781-12.971-70.648-33.842-88.8-49.08-18.469-15.5-29.617-24.857-47.574-11.834-24.877,18.039-25.005,42.49-25.143,68.376-.136,25.724-.276,52.321-24.085,76.134-35.1,35.107-48.408,68.25-35.608,88.656,9.752,15.551,32.908,19.728,58.981,10.64,27.633-9.632,45.631-3.188,68.417,4.969,20.357,7.287,45.084,16.138,84.153,16.138q8.123,0,17.107-.538c19.322-1.188,34.969-8.721,46.51-22.39C428.513,361.14,435.029,344.45,437.127,325c5.665-52.571-22.24-118.482-72.8-132.8m85.82,139.2c-4.928,45.759-30.394,73.393-69.866,75.816-53.824,3.308-85.406-8-110.772-17.076-16.439-5.884-30.658-10.973-47.014-10.973a90.162,90.162,0,0,0-30.092,5.484c-27.669,9.643-52.1,5.428-62.246-10.743-13.488-21.5,1.078-56.953,38.955-94.841,26.973-26.981,27.131-56.837,27.285-85.708.146-27.937.29-54.323,26.749-73.511,18.288-13.263,29.383-3.951,49.525,12.954,20.2,16.956,47.868,40.179,98.888,54.632,54.618,15.474,84.731,86.933,78.587,143.966M372.18,185.218c-50.542-14.319-77.994-37.359-98.035-54.181-20.335-17.066-32.609-27.369-52.348-13.054-27.4,19.872-27.545,46.823-27.7,75.359-.152,28.408-.306,57.785-26.611,84.1-38.691,38.7-53.375,75.217-39.277,97.684,10.733,17.115,36.226,21.7,64.947,11.694,30.528-10.642,50.4-3.527,75.574,5.482,22.457,8.036,49.734,17.8,92.823,17.8q8.964,0,18.867-.595c21.29-1.308,38.528-9.606,51.239-24.664,11.277-13.36,18.459-31.757,20.77-53.2,6.244-57.964-24.514-130.632-80.25-146.421m93.264,152.819c-5.393,50.108-33.285,80.368-76.518,83.022-58.894,3.618-93.444-8.747-121.2-18.684-17.968-6.43-33.507-11.994-51.385-11.994-9.957,0-20.648,1.728-32.879,5.992-30.315,10.567-57.087,5.935-68.212-11.795-14.778-23.56,1.159-62.39,42.63-103.869,29.468-29.476,29.643-62.11,29.811-93.67.16-30.583.313-59.472,29.3-80.492,20.077-14.554,32.23-4.351,54.3,14.175,22.089,18.54,52.339,43.933,108.118,59.734,59.8,16.938,92.762,95.156,86.037,157.581m-85.412-159.79c-55.306-15.667-85.339-40.877-107.268-59.284-22.2-18.636-35.6-29.884-57.127-14.276-29.927,21.7-30.081,51.156-30.246,82.34-.169,31.095-.337,63.247-29.139,92.057C113.971,321.375,97.916,361.268,113.3,385.8c11.714,18.672,39.552,23.675,70.91,12.743,33.432-11.653,55.19-3.864,82.736,6C291.505,413.325,321.331,424,368.442,424c6.534,0,13.4-.205,20.63-.648,23.253-1.429,42.086-10.493,55.966-26.938,12.321-14.6,20.169-34.7,22.69-58.13,3.452-32.027-3.226-67.5-18.317-97.324-16.406-32.414-41.044-54.687-69.379-62.713M480.747,344.681c-5.866,54.455-36.179,87.343-83.17,90.23-63.966,3.923-101.487-9.5-131.637-20.293-19.5-6.979-36.36-13.015-55.761-13.015-10.8,0-22.4,1.872-35.663,6.5-32.954,11.486-62.074,6.443-74.177-12.847-16.069-25.623,1.238-67.826,46.3-112.9,31.966-31.976,32.154-67.387,32.335-101.631.179-33.233.343-64.622,31.856-87.473,21.86-15.85,35.078-4.749,59.077,15.393,23.978,20.126,56.811,47.688,117.355,64.837,64.969,18.4,100.793,103.379,93.487,171.2M387.884,171.275c-60.067-17.017-92.687-44.394-116.5-64.386-24.067-20.2-38.6-32.394-61.9-15.495-32.453,23.535-32.624,55.489-32.8,89.318-.181,33.781-.365,68.711-31.665,100.021-45.87,45.883-63.3,89.15-46.616,115.741,12.69,20.234,42.863,25.649,76.874,13.795,36.327-12.662,59.966-4.2,89.9,6.512,26.65,9.539,59.028,21.127,110.163,21.127q10.636,0,22.388-.7c25.223-1.551,45.645-11.379,60.7-29.214,13.363-15.836,21.874-37.641,24.613-63.062,3.744-34.754-3.5-73.249-19.88-105.615-17.8-35.166-44.524-59.33-75.265-68.037m108.165,180.05c-6.335,58.8-39.076,94.319-89.824,97.436-69.04,4.234-109.532-10.254-142.068-21.9-21.03-7.525-39.218-14.035-60.136-14.035-11.649,0-24.144,2.018-38.447,7-35.6,12.41-67.058,6.954-80.141-13.9C68.07,378.249,86.749,332.669,135.4,284c34.463-34.473,34.67-72.665,34.867-109.593.191-35.88.37-69.769,34.406-94.451,23.637-17.143,37.923-5.155,63.854,16.613,25.866,21.708,61.284,51.44,126.588,69.938,70.147,19.87,108.821,111.6,100.937,184.813M395.74,164.3C330.9,145.935,295.7,116.389,270,94.813,244.063,73.043,228.407,59.908,203.322,78.1c-34.979,25.365-35.164,59.82-35.354,96.3s-.4,74.173-34.2,107.982C84.312,331.853,65.516,378.5,83.488,407.148c13.673,21.8,46.187,27.625,82.841,14.847,39.223-13.673,64.744-4.538,97.055,7.026,28.749,10.292,63.671,22.792,118.831,22.792q11.476,0,24.15-.759c27.188-1.671,49.2-12.266,65.428-31.489,14.408-17.07,23.584-40.581,26.538-67.992,4.037-37.482-3.779-79-21.442-113.905-19.188-37.921-48.01-63.976-81.15-73.365M511.35,357.971c-6.8,63.152-41.968,101.292-96.478,104.64-74.1,4.55-117.572-11.007-152.5-23.509-22.558-8.073-42.069-15.056-64.51-15.056-12.494,0-25.895,2.164-41.233,7.511-38.246,13.332-72.043,7.464-86.1-14.95-18.658-29.744,1.393-78.7,53.631-130.953,36.967-36.973,37.184-77.94,37.4-117.554.2-38.528.4-74.92,36.959-101.434,25.419-18.437,40.77-5.555,68.634,17.834,27.746,23.292,65.753,55.19,135.82,75.04,75.318,21.336,116.848,119.828,108.382,198.432M403.591,157.33C334,137.614,296.21,105.9,268.62,82.738c-27.8-23.336-44.581-37.419-71.454-17.933-37.5,27.2-37.7,64.153-37.907,103.28-.211,39.151-.422,79.637-36.721,115.944-53.05,53.064-73.219,103.081-53.954,133.8,14.65,23.355,49.507,29.6,88.8,15.9,42.12-14.682,69.521-4.877,104.214,7.541,30.847,11.04,68.317,24.453,127.5,24.451,8.207,0,16.83-.256,25.911-.814,29.156-1.791,52.76-13.149,70.157-33.763,15.456-18.307,25.3-43.523,28.463-72.924,4.331-40.209-4.055-84.748-23.005-122.2-20.585-40.674-51.493-68.622-87.038-78.689M526.648,364.614c-7.269,67.5-44.859,108.267-103.125,111.844-79.178,4.865-125.615-11.758-162.931-25.115-24.09-8.623-44.922-16.079-68.886-16.079-13.336,0-27.645,2.313-44.016,8.018-40.89,14.25-77.028,7.97-92.066-16-19.951-31.805,1.47-84.135,57.3-139.981,39.462-39.472,39.7-83.215,39.921-125.518.217-41.174.424-80.068,39.511-108.411,27.2-19.73,43.612-5.955,73.41,19.052C295.4,97.3,335.991,131.37,410.82,152.566c80.492,22.8,124.876,128.052,115.828,212.048m-115.2-214.257c-74.356-21.064-114.728-54.951-144.206-79.694-29.665-24.9-47.572-39.935-76.232-19.153C150.979,80.537,150.767,120,150.546,161.77c-.221,41.838-.451,85.1-39.245,123.905C54.659,342.332,33.118,395.725,53.678,428.5c15.631,24.916,52.827,31.568,94.766,16.95,45.026-15.7,74.305-5.214,111.371,8.053,32.948,11.793,72.969,26.118,136.173,26.118q13.148,0,27.671-.873c31.123-1.909,56.319-14.035,74.888-36.037,16.5-19.543,27-46.463,30.384-77.854,4.626-42.936-4.329-90.5-24.56-130.484-21.976-43.43-54.981-73.267-92.926-84.017m130.5,220.9C534.209,443.1,494.2,486.5,432.168,490.308c-84.244,5.18-133.658-12.512-173.362-26.723-25.616-9.17-47.775-17.1-73.257-17.1-14.181,0-29.393,2.457-46.8,8.526-43.533,15.176-82.013,8.479-98.031-17.056-21.243-33.866,1.547-89.572,60.967-149.008,41.962-41.972,42.209-88.49,42.449-133.479.234-43.824.453-85.217,42.063-115.394,28.987-21.024,46.467-6.355,78.187,20.272,31.523,26.459,74.7,62.7,154.287,85.245,39.726,11.253,74.313,42.567,97.392,88.171,21.326,42.144,30.764,92.259,25.889,137.493M419.3,143.384c-79.119-22.412-122.072-58.469-153.439-84.8-31.535-26.469-50.567-42.445-81.012-20.372-42.555,30.859-42.778,72.819-43.009,117.241-.238,44.524-.481,90.563-41.775,131.867-60.232,60.248-83.144,117.014-61.29,151.853,16.607,26.475,56.141,33.541,100.732,18,47.921-16.707,79.079-5.553,118.533,8.569,35.042,12.542,77.609,27.777,144.842,27.777q13.983,0,29.432-.926c33.086-2.03,59.876-14.922,79.617-38.313,17.539-20.78,28.713-49.407,32.307-82.784,4.918-45.665-4.605-96.246-26.124-138.775-23.369-46.185-58.461-77.915-98.813-89.345M557.253,377.9c-8.089,75.077-51.615,122.277-116.435,126.259-89.314,5.484-141.7-13.265-183.794-28.329-27.147-9.718-50.63-18.124-77.633-18.124-15.027,0-31.141,2.6-49.588,9.034-46.177,16.1-87,8.989-103.993-18.108C3.274,412.7,27.435,353.625,90.446,290.6c44.459-44.469,44.721-93.767,44.975-141.441.246-46.473.477-90.368,44.62-122.376C210.81,4.464,229.348,20.025,263,48.273c33.411,28.043,79.172,66.451,163.526,90.346,42.126,11.935,78.807,45.139,103.278,93.5,22.611,44.68,32.616,97.816,27.45,145.78m-130.1-241.488c-83.879-23.763-129.42-61.986-162.669-89.9-33.4-28.037-53.56-44.961-85.787-21.592-45.078,32.693-45.316,77.152-45.566,124.222-.252,47.21-.512,96.027-44.3,139.83C25,352.811.72,412.954,23.867,449.853c17.588,28.037,59.466,35.515,106.7,19.054,50.816-17.714,83.858-5.888,125.69,9.082,37.141,13.3,82.25,29.444,153.512,29.442q14.814,0,31.2-.983c35.052-2.152,63.428-15.807,84.346-40.587,18.585-22.016,30.418-52.348,34.228-87.716,5.212-48.394-4.877-101.995-27.681-147.063-24.763-48.938-61.947-82.561-104.7-94.671m145.4,248.132C564,463.906,517.992,513.8,449.468,518.008c-94.374,5.791-149.745-14.016-194.227-29.939-28.68-10.264-53.485-19.143-82.007-19.143-15.872,0-32.9,2.751-52.374,9.539-48.819,17.019-91.98,9.5-109.956-19.158-23.832-37.992,1.7-100.443,68.3-167.061,46.959-46.969,47.235-99.044,47.5-149.4.264-49.119.508-95.515,47.172-129.355,32.555-23.61,52.157-7.157,87.743,22.711,35.3,29.629,83.637,70.207,172.754,95.45,44.532,12.615,83.3,47.712,109.164,98.827,23.9,47.221,34.471,103.377,29.009,154.068M545.592,229.436c-26.156-51.692-65.434-87.2-110.59-100-88.642-25.111-136.766-65.507-171.9-95-35.269-29.6-56.559-47.472-90.567-22.81-47.6,34.522-47.854,81.485-48.118,131.2-.264,49.895-.536,101.491-46.827,147.792C41.814,326.4,18.029,360.285,6.888,391.327c-9.842,27.423-9.125,51.35,2.071,69.2,18.567,29.6,62.786,37.488,112.661,20.106,53.718-18.727,88.64-6.226,132.845,9.6,39.245,14.045,86.9,31.107,162.188,31.1q15.649,0,32.953-1.037c37.019-2.272,66.989-16.693,89.077-42.863,19.628-23.251,32.128-55.288,36.152-92.648,5.509-51.117-5.151-107.743-29.243-155.351" transform="matrix(1, -0.017, 0.017, 1, -199.884, 1346.82)" fill="#d1aa77" opacity="0.15"/></g></svg>