<svg xmlns="http://www.w3.org/2000/svg" xmlns:xlink="http://www.w3.org/1999/xlink" width="570" height="463" viewBox="0 0 570 463"><defs><clipPath id="a"><rect width="570" height="463" transform="translate(1104.401)" fill="#fff" stroke="#707070" stroke-width="1"/></clipPath></defs><g transform="translate(-1104.401)" clip-path="url(#a)"><path d="M451.682,360.451c-3.13,29.033-19.256,46.566-44.251,48.1-34.413,2.123-54.626-5.116-70.863-10.925-10.618-3.8-19.8-7.091-30.388-7.091a58.563,58.563,0,0,0-19.546,3.564c-17.464,6.087-32.852,3.488-39.2-6.63-8.486-13.527.832-35.986,24.924-60.083,17.5-17.511,17.612-37.685,17.707-55.485.091-17.764.184-34.546,16.9-46.671,11.33-8.218,17.9-2.7,31,8.289,13.014,10.923,30.837,25.886,63.725,35.2,34.752,9.845,53.9,55.382,49.989,91.732m-49.236-94.4c-32.312-9.153-49.877-23.9-62.7-34.658-12.842-10.775-21.32-17.9-34.411-8.409-17.859,12.953-17.948,30.417-18.051,48.907-.091,18.1-.191,36.831-16.895,53.534-25.064,25.073-34.528,48.824-25.307,63.524,7.057,11.252,23.728,14.305,42.461,7.774,19.384-6.76,32.052-2.221,48.09,3.517,14.465,5.177,32.037,11.468,59.805,11.468q5.769,0,12.158-.383c26.092-1.6,43.6-20.508,46.84-50.571,4.04-37.479-15.891-84.476-51.993-94.7m67.731,102.436c-3.694,34.29-22.751,54.994-52.289,56.808-40.549,2.5-64.349-6.026-83.472-12.869-12.472-4.465-23.255-8.326-35.682-8.326a68.632,68.632,0,0,0-22.909,4.178c-20.66,7.207-38.883,4.1-46.408-7.9-10.049-16.018.923-42.56,29.354-71,20.525-20.53,20.648-43.193,20.766-65.107.111-20.969.213-40.773,19.985-55.112,13.493-9.779,21.762-2.837,36.772,9.764,15.3,12.84,36.244,30.424,74.891,41.372,41.011,11.613,63.612,65.318,58.993,108.19M411.943,257.622c-38.075-10.785-58.76-28.149-73.865-40.827-15.017-12.607-24.941-20.935-40.181-9.885-20.915,15.164-21.023,35.653-21.139,57.343-.115,21.355-.231,43.436-19.948,63.161-29.41,29.416-40.527,57.243-29.744,74.437,8.245,13.139,27.742,16.691,49.673,9.045,22.889-7.977,37.83-2.629,56.744,4.138,17,6.087,37.653,13.48,70.282,13.478q6.793,0,14.293-.449c30.567-1.878,51.084-24.04,54.882-59.283,4.735-44-18.64-99.164-61-111.16m76.732,118.9c-4.259,39.543-26.251,63.424-60.333,65.517-46.676,2.865-74.074-6.937-96.081-14.813-14.317-5.125-26.706-9.561-40.967-9.561a78.842,78.842,0,0,0-26.278,4.789c-23.861,8.316-44.9,4.72-53.617-9.17-11.613-18.512,1.019-49.133,33.789-81.914,23.547-23.549,23.684-49.57,23.817-74.732.128-24.168.25-47,23.08-63.551,15.638-11.345,25.2-3.324,42.542,11.239,17.577,14.754,41.651,34.958,86.057,47.538,47.255,13.39,73.31,75.264,67.991,124.657M421.437,249.193c-43.831-12.418-67.64-32.4-85.029-47-17.808-14.951-28.559-23.976-45.959-11.36-23.964,17.381-24.087,40.89-24.224,65.782-.128,24.6-.263,50.041-23,72.785-33.75,33.758-46.529,65.664-34.185,85.35,9.428,15.027,31.76,19.077,56.887,10.319,26.389-9.2,43.6-3.039,65.4,4.762,19.536,6.993,43.269,15.488,80.767,15.486,5.2,0,10.668-.162,16.421-.515,35.041-2.155,58.563-27.57,62.918-67.994,5.444-50.515-21.384-113.85-69.994-127.62M507.173,384.55c-4.831,44.8-29.747,71.857-68.374,74.228-52.812,3.24-83.8-7.847-108.693-16.757-16.171-5.788-30.157-10.8-46.259-10.8a88.863,88.863,0,0,0-29.641,5.405c-27.061,9.43-50.932,5.331-60.831-10.444-13.174-21,1.117-55.7,38.23-92.827,26.561-26.571,26.72-55.947,26.873-84.358.142-27.368.28-53.217,26.158-71.985,17.8-12.9,28.642-3.809,48.323,12.71,19.86,16.667,47.059,39.5,97.218,53.706,53.514,15.162,83.018,85.208,77,141.118M430.929,240.761c-49.584-14.047-76.521-36.654-96.187-53.161-20.071-16.846-32.179-27.012-51.732-12.832-27.02,19.592-27.16,46.126-27.312,74.219-.147,27.849-.3,56.644-26.058,82.409-38.09,38.1-52.523,74.086-38.613,96.263,10.609,16.914,35.77,21.463,64.093,11.59,29.9-10.422,49.383-3.446,74.052,5.383,22.074,7.9,48.888,17.5,91.246,17.5q8.807,0,18.547-.584c39.526-2.428,66.055-31.1,70.969-76.7,6.139-57.032-24.141-128.538-79.005-144.083m94.739,151.817c-5.39,50.058-33.242,80.291-76.418,82.942-58.929,3.62-93.516-8.756-121.3-18.7-18.021-6.448-33.61-12.027-51.546-12.027-10,0-20.729,1.733-33.014,6.016-30.25,10.545-56.956,5.945-68.038-11.716-14.735-23.5,1.213-62.275,42.66-103.737,29.587-29.592,29.762-62.326,29.928-93.98.164-30.572.317-59.447,29.249-80.429,19.951-14.472,32.081-4.291,54.1,14.187,22.138,18.583,52.459,44.035,108.374,59.874,59.776,16.929,92.728,95.144,86.005,157.571M440.421,232.335c-55.343-15.68-85.4-40.91-107.348-59.332-22.327-18.741-35.8-30.049-57.511-14.305-30.073,21.806-30.228,51.364-30.395,82.657-.165,31.1-.334,63.249-29.116,92.036-42.429,42.439-58.519,82.505-43.046,107.174,11.789,18.8,39.781,23.848,71.3,12.862,33.4-11.644,55.161-3.853,82.707,6.006,24.609,8.809,54.5,19.509,101.729,19.509q9.819,0,20.679-.65c23.358-1.436,42.273-10.542,56.224-27.066,12.369-14.656,20.245-34.833,22.781-58.35,6.848-63.551-26.885-143.229-88.006-160.541M544.165,400.61c-5.957,55.316-36.742,88.723-84.459,91.651-65.066,4-103.244-9.666-133.909-20.643-19.872-7.113-37.061-13.264-56.833-13.264-11.019,0-22.845,1.91-36.377,6.63C199.14,476.64,169.6,471.544,157.341,452c-16.306-25.989,1.3-68.848,47.091-114.65,32.606-32.616,32.8-68.708,32.984-103.61.177-33.772.351-65.669,32.336-88.865,22.108-16.033,35.52-4.777,59.869,15.66,24.418,20.5,57.866,48.571,119.542,66.042,66.025,18.706,102.429,105.09,95,174.036M449.915,223.9c-61.1-17.31-94.285-45.161-118.511-65.5-24.583-20.631-39.42-33.085-63.281-15.78-33.124,24.023-33.3,56.6-33.483,91.1-.184,34.342-.371,69.854-32.17,101.661-46.772,46.781-64.523,90.927-47.481,118.086,12.975,20.69,43.792,26.234,78.512,14.136,36.9-12.865,60.932-4.264,91.359,6.627,27.147,9.715,60.122,21.519,112.21,21.519,7.224,0,14.813-.228,22.808-.719,25.736-1.581,46.575-11.613,61.941-29.816,13.633-16.151,22.314-38.389,25.108-64.312,7.548-70.07-29.634-157.917-97.012-177M562.658,408.641C556.138,469.215,522.42,505.8,470.158,509c-71.195,4.374-112.961-10.574-146.52-22.587-21.72-7.774-40.505-14.5-62.118-14.5-12.037,0-24.96,2.089-39.747,7.244-36.647,12.774-69.01,7.175-82.459-14.259-17.864-28.48,1.4-75.421,51.534-125.563,35.623-35.633,35.834-75.083,36.038-113.234.194-36.971.378-71.894,35.419-97.3,24.271-17.594,38.961-5.26,65.645,17.135,26.7,22.413,63.271,53.109,130.7,72.211,72.284,20.476,112.137,115.031,104.007,190.494M459.407,215.477c-66.857-18.939-103.163-49.415-129.672-71.666-26.841-22.528-43.038-36.126-69.059-17.258-36.178,26.237-36.364,61.84-36.563,99.537-.2,37.589-.408,76.457-35.225,111.285-51.111,51.124-70.52,99.348-51.919,129,14.16,22.572,47.812,28.62,85.721,15.4C263.1,467.7,289.406,477.111,322.7,489.03c29.685,10.623,65.74,23.529,122.691,23.529,7.9,0,16.2-.248,24.938-.783,28.11-1.728,50.876-12.685,67.655-32.565,14.894-17.648,24.381-41.946,27.43-70.272,4.173-38.716-3.9-81.6-22.142-117.652-19.833-39.185-49.617-66.109-83.87-75.812m121.751,201.2c-7.091,65.829-43.735,105.586-100.541,109.076-77.326,4.742-122.684-11.487-159.132-24.531-23.571-8.436-43.954-15.734-67.407-15.734-13.058,0-27.076,2.263-43.112,7.855-39.837,13.886-75.038,7.788-89.67-15.53-19.425-30.974,1.5-81.992,55.969-136.476,38.642-38.654,38.87-81.462,39.089-122.858.216-40.174.415-78.119,38.51-105.742,26.426-19.16,42.4-5.741,71.415,18.608,28.986,24.33,68.676,57.648,141.866,78.379,78.538,22.248,121.844,124.972,113.013,206.954M468.9,207.048c-72.613-20.572-112.046-53.667-140.833-77.834-29.094-24.42-46.661-39.16-74.832-18.731C214,138.934,213.8,177.561,213.58,218.457c-.218,40.837-.442,83.062-38.279,120.912-55.451,55.466-76.519,107.77-56.352,139.915,15.341,24.46,51.816,31.006,92.93,16.676,43.915-15.307,72.491-5.078,108.671,7.872,32.216,11.532,71.356,25.54,133.172,25.54q12.857,0,27.064-.852c30.491-1.875,55.179-13.755,73.377-35.316,16.154-19.143,26.443-45.5,29.754-76.234,4.526-42.012-4.237-88.548-24.033-127.674-21.512-42.511-53.824-71.722-90.986-82.247M599.655,424.7C592,495.79,552.417,538.723,491.071,542.491c-83.46,5.118-132.409-12.4-171.741-26.475-25.422-9.1-47.41-16.966-72.7-16.966-14.082,0-29.187,2.44-46.477,8.466-43.038,15-81.064,8.407-96.879-16.8-20.989-33.463,1.591-88.563,60.4-147.392,41.661-41.673,41.912-87.841,42.15-132.483.231-43.375.447-84.341,41.593-114.179,28.573-20.724,45.844-6.232,77.191,20.083,31.269,26.242,74.084,62.184,153.027,84.545,84.8,24.02,131.55,134.915,122.019,223.414M478.4,198.619c-78.377-22.2-120.931-57.92-152-84-31.355-26.318-50.282-42.2-80.605-20.2-42.285,30.662-42.508,72.314-42.739,116.41s-.479,89.665-41.337,130.536C101.922,401.165,79.2,457.551,100.925,492.187c16.529,26.347,55.834,33.394,100.144,17.948,47.415-16.529,78.266-5.486,117.326,8.493,34.754,12.442,76.97,27.552,143.651,27.552q13.873,0,29.195-.918c32.866-2.02,59.477-14.828,79.093-38.065,17.418-20.635,28.51-49.057,32.081-82.193,4.88-45.311-4.568-95.5-25.92-137.7-23.2-45.841-58.038-77.338-98.1-88.688M618.153,432.738c-8.225,76.342-50.733,122.448-116.628,126.5-89.572,5.5-142.129-13.306-184.35-28.419-27.27-9.759-50.856-18.2-77.984-18.2-15.1,0-31.3,2.617-49.845,9.079-46.234,16.117-87.09,9.023-104.086-18.073-22.555-35.957,1.684-95.136,64.832-158.3,44.688-44.7,44.95-94.218,45.206-142.107.243-46.575.479-90.568,44.678-122.62,30.729-22.288,49.285-6.716,82.969,21.558,33.542,28.156,79.486,66.717,164.188,90.713,91.05,25.792,141.253,144.856,131.02,239.877M487.887,190.19c-84.13-23.834-129.81-62.177-163.162-90.171-33.61-28.21-53.892-45.235-86.378-21.679-45.338,32.876-45.574,77.552-45.824,124.851-.255,47.329-.511,96.27-44.391,140.16C84,407.5,59.62,467.963,82.909,505.093c17.71,28.232,59.847,35.78,107.353,19.219,50.918-17.749,84.042-5.9,125.98,9.116,37.29,13.346,82.586,29.56,154.132,29.558,9.921,0,20.346-.309,31.323-.984,35.245-2.165,63.779-15.9,84.81-40.814,18.684-22.13,30.579-52.614,34.408-88.156,5.236-48.608-4.9-102.449-27.81-147.718-24.885-49.17-62.248-82.954-105.217-95.124M636.646,440.769c-8.787,81.6-54.229,130.88-124.665,135.2-95.716,5.881-151.852-14.214-196.961-30.361-29.121-10.424-54.3-19.438-83.274-19.438-16.122,0-33.419,2.8-53.21,9.693-49.43,17.226-93.116,9.634-111.295-19.344-24.119-38.448,1.777-101.707,69.268-169.218,47.7-47.717,47.987-100.6,48.259-151.734.263-49.774.513-96.791,47.763-131.054,32.886-23.851,52.722-7.2,88.742,23.031,35.822,30.071,84.893,71.258,175.351,96.882,97.3,27.565,150.958,154.8,140.02,256.337M497.381,181.761C407.5,156.3,358.691,115.333,323.056,85.422c-35.861-30.1-57.508-48.276-92.154-23.154-48.389,35.09-48.644,82.79-48.912,133.29-.267,50.576-.545,102.876-47.442,149.785C66.075,413.832,40.035,478.378,64.89,518c18.9,30.12,63.86,38.161,114.559,20.491,54.43-18.974,89.825-6.3,134.633,9.735,39.83,14.256,88.21,31.573,164.615,31.573q15.894,0,33.451-1.055c37.624-2.307,68.082-16.966,90.529-43.563,19.943-23.625,32.641-56.168,36.73-94.115,5.592-51.9-5.233-109.4-29.69-157.737-26.566-52.5-66.465-88.57-112.336-101.565M655.143,448.8c-9.357,86.855-57.727,139.311-132.711,143.918-101.84,6.261-161.574-15.125-209.571-32.3-30.967-11.085-57.753-20.672-88.558-20.672-17.143,0-35.532,2.97-56.578,10.307C115.1,568.391,68.584,560.3,49.22,529.428c-25.68-40.94,1.87-108.281,73.7-180.13,50.726-50.738,51.025-106.972,51.315-161.358.282-52.977.548-103.016,50.849-139.5,35.041-25.415,56.173-7.683,94.518,24.506,38.107,31.985,90.3,75.794,186.512,103.05,48.024,13.6,89.835,51.457,117.733,106.587,25.78,50.947,37.189,111.528,31.3,166.211M506.873,173.332C411.229,146.239,359.3,102.651,321.387,70.825c-38.122-32-61.128-51.31-97.932-24.627-51.443,37.3-51.713,88.028-51.992,141.729-.287,53.824-.582,109.478-50.5,159.409C48.15,420.168,20.452,488.79,46.871,530.905c20.076,32.005,67.866,40.547,121.771,21.765,57.93-20.2,95.6-6.713,143.29,10.358,42.361,15.162,93.818,33.578,175.094,33.578q16.9,0,35.579-1.119c40-2.455,72.382-18.039,96.246-46.315,21.2-25.12,34.71-59.727,39.055-100.075,5.945-55.2-5.567-116.349-31.58-167.76-28.249-55.831-70.672-94.189-119.451-108.006m166.77,283.5c-9.779,90.757-62.4,147.816-140.754,152.63-107.969,6.63-171.294-16.036-222.182-34.246-32.817-11.748-61.2-21.91-93.848-21.91-18.166,0-37.646,3.147-59.945,10.92C101.092,583.683,51.748,575.09,31.2,542.334,3.958,498.9,33.165,427.485,109.337,351.293c53.745-53.757,54.062-113.352,54.369-170.982.3-56.18.577-109.243,53.939-147.936,37.2-26.978,59.607-8.166,100.286,25.982,40.39,33.9,95.708,80.33,197.681,109.216C566.536,182,610.878,222.139,640.46,280.6c27.334,54.013,39.428,118.246,33.183,176.228M516.365,164.9C414.967,136.177,359.913,89.97,319.72,56.23c-40.38-33.893-64.746-54.351-103.705-26.1-54.494,39.521-54.781,93.266-55.083,150.168-.3,57.071-.619,116.084-53.554,169.036C30.226,426.5.87,499.2,28.852,543.811c21.261,33.893,71.887,42.933,128.98,23.034,61.43-21.414,101.373-7.118,151.942,10.979,44.9,16.072,99.429,35.594,185.575,35.591q17.909,0,37.712-1.188c42.373-2.6,76.676-19.109,101.963-49.064C657.49,536.548,671.8,499.882,676.4,457.126c6.3-58.5-5.9-123.3-33.463-177.779C613,220.187,568.051,179.542,516.365,164.9M692.136,464.86C681.8,560.8,626.182,621.113,543.345,626.2c-114.086,7-181.022-16.944-234.794-36.193-34.671-12.408-64.656-23.142-99.135-23.142-19.187,0-39.766,3.326-63.313,11.532C87.089,598.973,34.912,589.881,13.182,555.24c-28.809-45.927,2.059-121.422,82.571-201.954,56.767-56.779,57.1-119.731,57.42-180.609.319-59.378.614-115.465,57.024-156.373,39.354-28.542,63.05-8.652,106.069,27.454C358.934,79.575,417.372,128.63,525.1,159.145c53.833,15.25,100.7,57.677,131.965,119.468,28.888,57.083,41.671,124.969,35.068,186.247m-32.589-187.5c-31.62-62.488-79.1-105.419-133.688-120.882C418.7,126.119,360.527,77.285,318.051,41.63,275.415,5.845,249.679-15.758,208.568,14.056c-57.547,41.733-57.849,98.5-58.168,158.606-.319,60.316-.648,122.689-56.607,178.66-43.244,43.254-72,84.213-85.465,121.739-11.9,33.151-11.031,62.076,2.5,83.654,22.444,35.78,75.9,45.319,136.191,24.305,64.938-22.638,107.154-7.526,160.592,11.6,47.442,16.978,105.046,37.6,196.063,37.6q18.917,0,39.835-1.254c44.751-2.747,80.981-20.179,107.682-51.816,23.728-28.107,38.839-66.835,43.7-112,6.659-61.794-6.227-130.246-35.35-187.8" transform="translate(1922.996 -98.216) rotate(110)" fill="#d1aa77" opacity="0.1"/></g></svg>