<svg xmlns="http://www.w3.org/2000/svg" xmlns:xlink="http://www.w3.org/1999/xlink" width="146.571" height="280.992" viewBox="0 0 146.571 280.992">
  <defs>
    <clipPath id="clip-path">
      <rect id="Rectangle_357" data-name="Rectangle 357" width="89.355" height="93.732" fill="#1a1818" stroke="rgba(0,0,0,0)" stroke-miterlimit="10" stroke-width="1"/>
    </clipPath>
  </defs>
  <g id="pre-loader-logo" transform="translate(-844.5 -318.5)">
    <path id="border" d="M139.847,228.6H5.725V5.725H139.847ZM145.571,0H0V234.322H145.571Z" transform="translate(845 319)" fill="#1a1818" stroke="rgba(0,0,0,0)" stroke-miterlimit="10" stroke-width="1"/>
    <g id="q-letter" transform="translate(872.825 389.194)" clip-path="url(#clip-path)">
      <path id="Path_9123" data-name="Path 9123" d="M81.5,19.375A44.676,44.676,0,1,0,61.332,86.144l5.215,7.588,13.883-9.54L75.5,77.025A44.687,44.687,0,0,0,81.5,19.375M66.611,64.084,51.99,42.811l-13.882,9.54L52.273,72.962a29.29,29.29,0,0,1-31.726-11.7l0,0a29.282,29.282,0,1,1,46.065,2.824" transform="translate(0 0)" fill="#1a1818" stroke="rgba(0,0,0,0)" stroke-miterlimit="10" stroke-width="1"/>
    </g>
    <path id="the" d="M61.505,29.039V0H80.378V5.552H67.4v5.793H79.164v5.621H67.4v6.521H80.448v5.552Zm-13.528,0V16.966H35.385V29.039h-5.9V0h5.9V11.345H47.977V0h5.932V29.039Zm-38.609,0V5.552H0V0H24.667V5.552H15.3V29.039Z" transform="translate(877.301 344.895)" fill="#1a1818" stroke="rgba(0,0,0,0)" stroke-miterlimit="10" stroke-width="1"/>
    <path id="lab" d="M52.834,29.039V0h10.13a16.968,16.968,0,0,1,4.682.573,9.693,9.693,0,0,1,3.3,1.6,6.678,6.678,0,0,1,1.977,2.392,6.747,6.747,0,0,1,.659,2.967,7.068,7.068,0,0,1-1.023,3.644,5.164,5.164,0,0,1-2.029,2.186,7.627,7.627,0,0,1,1.387.884,7.635,7.635,0,0,1,1.769,1.753,6.959,6.959,0,0,1,1.025,2.081,7.868,7.868,0,0,1,.33,2.255,7.772,7.772,0,0,1-3.382,6.7,10.652,10.652,0,0,1-3.418,1.527,15.778,15.778,0,0,1-3.887.485Zm5.9-5.552h4.926a7.978,7.978,0,0,0,4.061-.78,2.713,2.713,0,0,0,1.249-2.482,3.231,3.231,0,0,0-.347-1.612,2.656,2.656,0,0,0-1.006-.989,4.783,4.783,0,0,0-1.7-.538,16.338,16.338,0,0,0-2.393-.157H58.729Zm0-12.142h3.921a7.143,7.143,0,0,0,3.746-.728A2.474,2.474,0,0,0,67.507,8.4a2.454,2.454,0,0,0-1.059-2.046,6.581,6.581,0,0,0-3.8-.8H58.729ZM42.358,29.039l-2.394-6.628H28.931l-2.359,6.628H20.362L31.117,0h6.7L48.567,29.039ZM30.908,16.826h7.078L34.448,6.939ZM0,29.039V0H5.932V23.487H18.872v5.552Z" transform="translate(883.235 501.605)" fill="#1a1818" stroke="rgba(0,0,0,0)" stroke-miterlimit="10" stroke-width="1"/>
    <path id="tql" d="M48.464,28.482a14.919,14.919,0,0,1-6.87,1.492,15.619,15.619,0,0,1-6.071-1.145A14.3,14.3,0,0,1,27.649,20.9a15.5,15.5,0,0,1-1.111-5.916,15.542,15.542,0,0,1,1.111-5.9,14.184,14.184,0,0,1,3.12-4.753,14.85,14.85,0,0,1,4.754-3.174,16.45,16.45,0,0,1,12.142,0,14.781,14.781,0,0,1,4.753,3.174,14.148,14.148,0,0,1,3.123,4.753,15.542,15.542,0,0,1,1.111,5.9,15.626,15.626,0,0,1-1.285,6.383,12.852,12.852,0,0,1-3.294,4.649l4.372,4.615L53.391,33.72ZM38.091,6.313A8.088,8.088,0,0,0,35.28,8.186a8.79,8.79,0,0,0-1.855,2.931,10.5,10.5,0,0,0-.678,3.868,10.491,10.491,0,0,0,.678,3.868,8.782,8.782,0,0,0,1.855,2.933,8.335,8.335,0,0,0,2.812,1.891,9.048,9.048,0,0,0,3.5.676,8.315,8.315,0,0,0,2.636-.312l-2.774-3.019,3.088-2.948,3.469,3.644a7.64,7.64,0,0,0,1.715-2.689,10.4,10.4,0,0,0,.748-4.042,10.467,10.467,0,0,0-.676-3.868,8.8,8.8,0,0,0-1.858-2.931,8.089,8.089,0,0,0-2.809-1.874,9.374,9.374,0,0,0-3.54-.659A9.255,9.255,0,0,0,38.091,6.313ZM62.338,29.558V.519h5.933V24.007H81.211v5.552Zm-52.971,0V6.071H0V.519H24.667V6.071H15.3V29.557Z" transform="translate(877.181 565.052)" fill="#1a1818" stroke="rgba(0,0,0,0)" stroke-miterlimit="10" stroke-width="1"/>
  </g>
</svg>
