<svg xmlns="http://www.w3.org/2000/svg" width="74.979" height="56.657" viewBox="0 0 74.979 56.657"><path d="M17.7.089a1.169,1.169,0,0,1,.783,1.124V25.126h.958q6,0,12,.006a3.463,3.463,0,0,1,.983.121,1.11,1.11,0,0,1,.825,1.08c.01.178.006.356.006.538v3.6c.111,6.859.137,22.061,0,24.623a3.72,3.72,0,0,1-.01.464,1.194,1.194,0,0,1-1.048,1.066,5.065,5.065,0,0,1-.616.008H1.657c-.178,0-.36.01-.538-.006a1.187,1.187,0,0,1-1.1-1.091c-.019-.2-.008-.412-.008-.615q0-14-.011-28a2.935,2.935,0,0,1,.489-1.652q7.7-12.079,15.375-24.184A5.52,5.52,0,0,1,16.3.456,1.256,1.256,0,0,1,17.248,0,1.137,1.137,0,0,1,17.7.089M59.356.062A1.223,1.223,0,0,1,60.2,1.221c.011.206,0,.41,0,.616V25.125h.887c3.973,0,7.946.017,11.919-.011a2.379,2.379,0,0,1,1.97.748v30a1.8,1.8,0,0,1-1.7.78q-14.919-.029-29.835-.014c-.127,0-.256.006-.385,0a1.21,1.21,0,0,1-1.317-1.091,1.246,1.246,0,0,1,0-.257v-.308q0-14.071-.008-28.143a2.576,2.576,0,0,1,.41-1.443q7.757-12.178,15.494-24.37a5.349,5.349,0,0,1,.343-.512,1.282,1.282,0,0,1,1-.5,1.231,1.231,0,0,1,.371.056Z" fill="#fff"/></svg>