<svg xmlns="http://www.w3.org/2000/svg" width="41.514" height="41.17" viewBox="0 0 41.514 41.17">
  <path d="M0,40.17V0H34.278V12.261H31.145V3.134H3.134v33.9h7.888V40.17Zm16.256,0v-7.8L31.612,17.367a5.222,5.222,0,0,1,8.9,3.708,5.2,5.2,0,0,1-1.41,3.572l-14.6,15.522ZM33.816,19.6l-.01.009L19.39,33.693v3.342h3.764L36.82,22.5a2.076,2.076,0,0,0,.561-1.426,2.048,2.048,0,0,0-1.288-1.929,2.236,2.236,0,0,0-.84-.167A1.983,1.983,0,0,0,33.816,19.6Zm-1.09-1.112h-.016ZM6.1,25.623V22.487h8.787v3.135Zm0-6.645V15.842h14.83v3.135Zm0-6.645V9.2H25.854v3.135Z" transform="translate(0.5 0.5)" fill="currentcolor" stroke="rgba(0,0,0,0)" stroke-miterlimit="10" stroke-width="1"/>
</svg>