<svg xmlns="http://www.w3.org/2000/svg" width="161.085" height="162.212" viewBox="0 0 161.085 162.212"><rect width="41.569" height="3.495" transform="translate(0 153.412)" fill="#e38565"/><rect width="41.57" height="3.495" transform="translate(119.515 153.412)" fill="#e38565"/><g transform="translate(37.726)"><path d="M47,166.16c-.143,0-.285,0-.427-.012a1.749,1.749,0,0,1-1.821-1.758c-.05-3.858-.049-7.644,0-11.251a1.674,1.674,0,0,1,1.72-1.67c.324-.02.649-.026.986-.026.272,0,.551,0,.842.008.327,0,.67.009,1.035.009h.844v-2.768q0-8.412-.027-16.823c-.03-12.68-.062-25.793.07-38.686.16-15.731,7.694-27.307,22.392-34.408.263-.128.53-.249.8-.37l.58-.266a1.1,1.1,0,0,0,.359-.279l.089-.1.081-.154a2.492,2.492,0,0,0-.9-2.957c-1.4-1.4-2.758-2.763-4.115-4.126-2.414-2.427-4.829-4.853-7.269-7.254a3.546,3.546,0,0,1-1.186-2.846c.05-2.728.042-5.5.035-8.177,0-1.378-.007-2.757,0-4.135.005-1.84.548-2.4,2.322-2.4H84.678q13.468,0,26.936-.041a2.36,2.36,0,0,1,1.722.694,2.146,2.146,0,0,1,.6,1.594c-.119,4.3-.072,8.62-.014,12.675a3.214,3.214,0,0,1-1.091,2.547Q109,46.971,105.205,50.8c-1.277,1.283-3.926,3.937-3.926,3.937a2.433,2.433,0,0,0-.815,2.852l.127.327.817.359c.385.168.8.349,1.218.542,11.721,5.447,18.951,14.563,21.49,27.094a36.657,36.657,0,0,1,.657,7.116c.041,14.084.037,28.406.033,42.255l0,16.174,2.5-.008c.308,0,.61,0,.913.013,1.4.046,2.024.674,2.035,2.038.025,2.986.025,6.2,0,10.408-.009,1.653-.615,2.241-2.316,2.242q-9.624.01-19.248.008l-60.979,0Zm1.558-3.889H126.5s0-2.93,0-3.512c0-.618-.03-3.452-.03-3.452H48.554Zm5.381-14.355c0,.62.03,3.451.03,3.451h23.4V144.4H53.933s0,2.93,0,3.513m27.258,0c0,.608.03,3.45.03,3.45H93.715V144.4H81.192s0,2.928,0,3.512m16.352.006c0,.623.027,2.606.027,2.606l.009.837h23.353l.078-1.109c.019-.23.035-.433.036-.635,0-1.046,0-2.092,0-3.183v-2.032H97.544s0,2.936,0,3.515M73.456,62.656c-.2.09-.382.17-.561.247a11.4,11.4,0,0,0-1.114.528C60.214,69.981,54.232,79.772,54,92.535c-.194,10.763-.149,21.706-.105,32.289q.028,6.755.038,13.511a7.965,7.965,0,0,0,.08.981c.015.121.03.239.041.353l.075.764H77.359v-7.079H74.713c-.857,0-1.715-.008-2.573-.017-.883-.008-1.765-.018-2.647-.018-1.353,0-2.466.021-3.5.066l-.094,0a2.086,2.086,0,0,1-1.5-.641,2.164,2.164,0,0,1-.619-1.55c.068-2.816.057-5.675.046-8.44-.006-1.52-.012-3.04-.005-4.559.007-1.68.586-2.253,2.294-2.273.57-.008,1.141-.009,1.724-.009l5.348.005-1.837-1.5A27.154,27.154,0,0,1,61.165,91.232a26.689,26.689,0,0,1,13.074-21.2l.41-.246V62.11Zm31.552,70.659c-.966,0-1.932.01-2.9.02-.8.008-1.6.017-2.4.019a7.83,7.83,0,0,0-.975.081c-.116.015-.229.03-.338.041l-.759.076v6.862H121.05l0-12.368q0-17.424-.019-34.847A33.687,33.687,0,0,0,108.5,66.8a27.926,27.926,0,0,0-6.977-4.215l-1.164-.48v7.747l.415.245a26.962,26.962,0,0,1,13.112,21.344,26.486,26.486,0,0,1-10,22.824l-.791.632.761.667a.859.859,0,0,0,.643.3l1.854.023c.856.009,1.713.019,2.569.034,1.68.03,2.249.617,2.254,2.325,0,1.381,0,2.762-.012,4.143-.015,2.791-.03,5.676.053,8.519a2.469,2.469,0,0,1-.618,1.843,2.265,2.265,0,0,1-1.676.645l-.145,0c-1.116-.051-2.314-.074-3.766-.074M81.293,140.4H93.658v-7.023H81.293ZM67.677,129.514h9.672v-9.73H67.677Zm13.838-9.2a31.188,31.188,0,0,0-.109,8.467l.128.691H93.791V124.6l-.021-4.889H81.7Zm16.1,9.153h9.8s0-3.972,0-4.878l-.023-4.817H97.618ZM73.365,75.577c-6.163,4.551-10.8,14.889-7.257,25.084a22.582,22.582,0,0,0,21.263,15.225q.634,0,1.274-.035a22.541,22.541,0,0,0,20.986-17.92c1.807-8.391-1.691-18.16-7.964-22.242l-.88-.573-.369.985a1.025,1.025,0,0,0-.111.451c0,.522-.019,1.045-.032,1.569a37.652,37.652,0,0,0,.028,3.788,1.994,1.994,0,0,1-.527,1.541,2.353,2.353,0,0,1-1.731.729c-2.7-.035-5.545-.05-9.255-.05l-9.6.011-2.3,0c-1.546,0-2.156-.625-2.176-2.219-.016-1.243-.013-2.486-.008-3.8l0-3.535ZM92.9,56.806c-.625,0-1.25.012-1.864.019l-1.58.019V80.3H96.4v-23.5l-2.484,0ZM78.528,80.3h6.99V56.917h-6.99ZM77.829,53H97.123l9.937-9.9h-4.967V39.323h7.951V29.584H64.837s0,3.977,0,4.87l.024,4.915H83.805v3.784H68.084Z" transform="translate(-44.711 -3.948)" fill="#1a1818"/><path d="M83.646,3.618V0h3.6c.058.988.039,1.974.019,3.007q-.006.306-.012.612Z" transform="translate(-50.793)" fill="#1a1818"/><path d="M112.72,10.079V6.461h3.595c.062,1.2.046,2.385.019,3.618Z" transform="translate(-55.335 -0.994)" fill="#1a1818"/><path d="M70.723,13.309V9.691h3.6c.065,1.156.04,2.305.015,3.509l0,.109Z" transform="translate(-48.774 -1.49)" fill="#1a1818"/><path d="M99.8,16.54V12.922h3.594c.062,1.226.054,2.446.021,3.618Z" transform="translate(-53.316 -1.987)" fill="#1a1818"/><rect width="3.595" height="3.576" transform="translate(30.093 87.444)" fill="#1a1818"/><rect width="3.595" height="3.576" transform="translate(40.967 87.474)" fill="#1a1818"/><rect width="3.584" height="3.563" transform="translate(51.907 87.451)" fill="#1a1818"/><rect width="3.595" height="3.573" transform="translate(46.449 35.506)" fill="#1a1818"/></g></svg>