<svg xmlns="http://www.w3.org/2000/svg" width="82.211" height="34.94" viewBox="0 0 82.211 34.94">
  <path id="tql" d="M48.464,28.482a14.919,14.919,0,0,1-6.87,1.492,15.619,15.619,0,0,1-6.071-1.145A14.3,14.3,0,0,1,27.649,20.9a15.5,15.5,0,0,1-1.111-5.916,15.542,15.542,0,0,1,1.111-5.9,14.184,14.184,0,0,1,3.12-4.753,14.85,14.85,0,0,1,4.754-3.174,16.45,16.45,0,0,1,12.142,0,14.781,14.781,0,0,1,4.753,3.174,14.148,14.148,0,0,1,3.123,4.753,15.542,15.542,0,0,1,1.111,5.9,15.626,15.626,0,0,1-1.285,6.383,12.852,12.852,0,0,1-3.294,4.649l4.372,4.615L53.391,33.72ZM38.091,6.313A8.088,8.088,0,0,0,35.28,8.186a8.79,8.79,0,0,0-1.855,2.931,10.5,10.5,0,0,0-.678,3.868,10.491,10.491,0,0,0,.678,3.868,8.782,8.782,0,0,0,1.855,2.933,8.335,8.335,0,0,0,2.812,1.891,9.048,9.048,0,0,0,3.5.676,8.315,8.315,0,0,0,2.636-.312l-2.774-3.019,3.088-2.948,3.469,3.644a7.64,7.64,0,0,0,1.715-2.689,10.4,10.4,0,0,0,.748-4.042,10.467,10.467,0,0,0-.676-3.868,8.8,8.8,0,0,0-1.858-2.931,8.089,8.089,0,0,0-2.809-1.874,9.374,9.374,0,0,0-3.54-.659A9.255,9.255,0,0,0,38.091,6.313ZM62.338,29.558V.519h5.933V24.007H81.211v5.552Zm-52.971,0V6.071H0V.519H24.667V6.071H15.3V29.557Z" transform="translate(0.5 0.5)" fill="#1a1818" stroke="rgba(0,0,0,0)" stroke-miterlimit="10" stroke-width="1"/>
</svg>
