<svg xmlns="http://www.w3.org/2000/svg" width="776.629" height="702.611" viewBox="0 0 776.629 702.611"><path d="M744.944,748.521c3.489,32.367,21.468,51.914,49.334,53.624,38.366,2.367,60.9-5.7,79-12.18,11.838-4.239,22.078-7.906,33.878-7.906a65.289,65.289,0,0,1,21.791,3.973c19.47,6.786,36.625,3.888,43.7-7.391,9.46-15.081-.928-40.12-27.786-66.984-19.514-19.522-19.634-42.013-19.741-61.858-.1-19.8-.205-38.513-18.844-52.032-12.632-9.162-19.96-3.013-34.559,9.241-14.509,12.177-34.378,28.859-71.045,39.244-38.743,10.976-60.1,61.743-55.731,102.268m54.891-105.245c36.023-10.2,55.605-26.64,69.9-38.639,14.317-12.013,23.769-19.957,38.363-9.375,19.911,14.44,20.009,33.911,20.124,54.525.1,20.184.213,41.061,18.835,59.683,27.942,27.953,38.494,54.432,28.213,70.82-7.867,12.544-26.454,15.948-47.339,8.666-21.61-7.536-35.733-2.476-53.613,3.921-16.126,5.771-35.717,12.785-66.675,12.785q-6.432,0-13.554-.427c-29.089-1.787-48.608-22.863-52.22-56.38-4.5-41.784,17.716-94.179,57.964-105.579m-75.511,114.2c4.118,38.229,25.364,61.311,58.3,63.333,45.207,2.783,71.74-6.718,93.06-14.347,13.9-4.978,25.926-9.282,39.78-9.282A76.514,76.514,0,0,1,941,801.838c23.033,8.034,43.349,4.575,51.739-8.809,11.2-17.858-1.029-47.448-32.726-79.15-22.883-22.888-23.019-48.154-23.151-72.585-.123-23.378-.238-45.456-22.28-61.442-15.043-10.9-24.262-3.163-41,10.886-17.054,14.315-40.407,33.919-83.493,46.123-45.721,12.946-70.919,72.821-65.769,120.616m64.923-123.6C831.7,621.857,854.757,602.5,871.6,588.365c16.742-14.055,27.805-23.34,44.8-11.02,23.318,16.906,23.438,39.748,23.567,63.93.129,23.808.257,48.425,22.24,70.415,32.789,32.794,45.182,63.818,33.161,82.987-9.192,14.648-30.928,18.608-55.378,10.084-25.518-8.894-42.175-2.931-63.262,4.614-18.956,6.787-41.978,15.029-78.354,15.026q-7.573,0-15.935-.5c-34.078-2.094-56.952-26.8-61.185-66.092-5.279-49.052,20.781-110.554,68-123.927M703.7,766.434c4.748,44.085,29.267,70.708,67.263,73.042,52.037,3.193,82.582-7.733,107.117-16.515,15.962-5.714,29.773-10.659,45.672-10.659a87.9,87.9,0,0,1,29.3,5.339c26.6,9.271,50.061,5.262,59.776-10.224,12.946-20.639-1.136-54.776-37.671-91.322-26.251-26.254-26.4-55.264-26.552-83.315-.142-26.943-.279-52.393-25.731-70.85-17.434-12.648-28.093-3.705-47.429,12.53-19.6,16.449-46.436,38.973-95.941,53-52.683,14.927-81.731,83.909-75.8,138.975m74.961-141.95c48.866-13.844,75.41-36.125,94.795-52.393,19.853-16.668,31.839-26.73,51.238-12.665,26.716,19.377,26.853,45.587,27.006,73.338.142,27.428.293,55.789,25.641,81.145,37.627,37.635,51.873,73.207,38.111,95.153-10.511,16.753-35.408,21.268-63.421,11.5-29.42-10.254-48.611-3.388-72.908,5.309-21.78,7.8-48.239,17.267-90.044,17.264-5.793,0-11.893-.181-18.307-.575-39.066-2.4-65.29-30.736-70.144-75.8-6.07-56.317,23.84-126.927,78.034-142.278m-95.583,150.9c5.385,49.947,33.164,80.111,76.228,82.754,58.878,3.612,93.421-8.749,121.177-18.682,18.028-6.453,33.62-12.035,51.572-12.035,10,0,20.745,1.738,33.046,6.026,30.17,10.514,56.782,5.944,67.819-11.644,14.687-23.416-1.245-62.1-42.621-103.489-29.612-29.622-29.789-62.373-29.959-94.048-.159-30.512-.312-59.33-29.163-80.253-19.84-14.386-31.932-4.247-53.873,14.17-22.141,18.581-52.464,44.033-108.384,59.874-59.661,16.9-92.554,94.995-85.841,157.326m85-160.3c55.28-15.661,85.31-40.864,107.235-59.267,22.376-18.781,35.875-30.115,57.674-14.306,30.123,21.843,30.279,51.424,30.449,82.743.164,31.048.331,63.15,29.051,91.875,42.465,42.479,58.555,82.6,43.048,107.32-11.827,18.857-39.879,23.928-71.455,12.922-33.331-11.619-55.056-3.842-82.557,6-24.609,8.806-54.5,19.508-101.727,19.508q-9.818,0-20.677-.651c-44.066-2.707-73.642-34.674-79.12-85.513-6.844-63.582,26.914-143.3,88.08-160.632M662.461,784.338c6.009,55.808,37.06,89.513,85.2,92.469,65.7,4.036,104.258-9.761,135.229-20.849,20.091-7.189,37.471-13.409,57.466-13.409,11.146,0,23.11,1.932,36.806,6.707,33.724,11.756,63.5,6.628,75.853-13.061,16.427-26.2-1.352-69.428-47.56-115.652-32.986-32.991-33.18-69.485-33.366-104.775-.183-34.083-.353-66.275-32.608-89.667-22.242-16.134-35.766-4.783-60.31,15.817-24.68,20.718-58.484,49.093-120.821,66.751C691.7,627.543,654.966,714.741,662.461,784.338M757.5,605.689c61.7-17.481,95.214-45.609,119.678-66.146,24.891-20.893,39.915-33.5,64.116-15.948,33.528,24.311,33.7,57.264,33.886,92.151.183,34.669.372,70.514,32.46,102.607,47.3,47.314,65.241,91.982,47.99,119.483-13.143,20.959-44.35,26.588-79.49,14.339-37.241-12.982-61.5-4.3-92.206,6.7-27.436,9.821-60.761,21.75-113.414,21.75q-10.947,0-23.055-.725c-26.041-1.6-47.128-11.753-62.682-30.175-13.789-16.34-22.571-38.834-25.4-65.052-7.635-70.85,29.973-159.68,98.114-178.98m-115.661,187.6C648.48,854.962,682.8,892.206,736,895.47c72.539,4.458,115.1-10.776,149.289-23.014,22.155-7.93,41.318-14.788,63.361-14.788,12.284,0,25.469,2.129,40.555,7.391,37.29,13,70.221,7.315,83.89-14.479,18.178-28.974-1.453-76.756-52.5-127.819-36.352-36.363-36.565-76.6-36.773-115.51-.2-37.651-.391-73.212-36.051-99.072-24.648-17.875-39.6-5.325-66.746,17.459-27.223,22.852-64.513,54.15-133.273,73.628-73.609,20.855-114.194,117.16-105.913,194.025m105.076-197c68.117-19.3,105.114-50.349,132.123-73.021,27.406-23,43.948-36.885,70.549-17.593,36.929,26.782,37.123,63.1,37.329,101.562.205,38.286.413,77.878,35.865,113.337,52.144,52.155,71.934,101.37,52.935,131.65-14.465,23.066-48.822,29.248-87.53,15.76-41.143-14.342-67.931-4.753-101.852,7.388-30.266,10.831-67.028,23.991-125.1,23.991q-12.08,0-25.427-.8c-28.692-1.762-51.925-12.946-69.055-33.24-15.2-18.006-24.877-42.8-27.991-71.7C630.345,715.5,671.8,617.568,746.914,596.29M621.222,802.246c7.268,67.531,44.859,108.313,103.125,111.89,79.372,4.876,125.936-11.789,163.349-25.181,24.215-8.666,45.158-16.164,69.253-16.164,13.42,0,27.827,2.329,44.312,8.075,40.856,14.241,76.937,8,91.93-15.9,19.916-31.752-1.563-84.084-57.453-139.985-39.715-39.726-39.95-83.707-40.177-126.24-.216-41.217-.421-80.152-39.488-108.48-27.058-19.615-43.436-5.864-73.185,19.1-29.77,24.987-70.538,59.21-145.713,80.5C656.588,612.7,612.159,718.115,621.222,802.246M736.333,586.9C810.869,565.781,851.345,531.8,880.9,507c29.924-25.115,47.982-40.276,76.991-19.24,40.333,29.25,40.541,68.943,40.763,110.97.227,41.906.454,85.239,39.271,124.067,56.982,57,78.619,110.759,57.882,143.819-15.787,25.165-53.3,31.908-95.566,17.174-45.056-15.7-74.381-5.207-111.5,8.081C855.641,903.712,815.444,918.1,751.952,918.1c-8.806,0-18.055-.276-27.8-.873-31.338-1.926-56.719-14.142-75.426-36.305-16.605-19.675-27.182-46.764-30.58-78.343-4.652-43.163,4.348-90.972,24.686-131.165,22.111-43.685,55.316-73.7,93.5-84.519M600.6,811.2c7.906,73.39,48.759,117.713,112.089,121.6C798.894,938.091,849.462,920,890.1,905.456c26.279-9.405,49-17.541,75.15-17.541,14.558,0,30.186,2.523,48.064,8.757,44.413,15.481,83.657,8.683,99.969-17.314,21.657-34.532-1.669-91.41-62.4-152.152-43.081-43.094-43.335-90.819-43.579-136.97-.241-44.788-.463-87.091-42.933-117.888-29.461-21.361-47.276-6.4-79.618,20.745-32.315,27.124-76.564,64.269-158.161,87.382C639.031,605.279,590.751,719.8,600.6,811.2M725.75,577.5c80.954-22.935,124.915-59.831,157.009-86.774,32.436-27.225,52.021-43.658,83.428-20.882,43.737,31.719,43.967,74.783,44.208,120.375.244,45.527.493,92.6,42.676,134.8,61.82,61.836,85.307,120.148,62.824,155.986-17.1,27.269-57.767,34.567-103.6,18.592-48.959-17.065-80.817-5.662-121.153,8.776-35.916,12.856-79.552,28.473-148.468,28.473q-14.334,0-30.173-.95c-33.993-2.091-61.516-15.335-81.8-39.373-18.009-21.342-29.48-50.729-33.172-84.99-5.046-46.838,4.723-98.719,26.793-142.339C648.3,621.8,684.32,589.232,725.75,577.5M579.975,820.154c8.538,79.251,52.664,127.115,121.057,131.316,93.046,5.706,147.617-13.819,191.467-29.516,28.342-10.141,52.855-18.915,81.047-18.915,15.7,0,32.54,2.72,51.815,9.438,47.982,16.725,90.375,9.372,108.007-18.731,23.4-37.307-1.773-98.735-67.337-164.321-46.447-46.46-46.726-97.931-46.991-147.7-.257-48.357-.5-94.029-46.37-127.293-31.855-23.1-51.109-6.948-86.057,22.39-34.86,29.256-82.593,69.326-170.6,94.256-94.538,26.779-146.66,150.411-136.034,249.076M715.163,568.1c87.379-24.754,134.822-64.573,169.46-93.651,34.956-29.341,56.057-47.043,89.864-22.524,47.142,34.184,47.391,80.62,47.648,129.781.263,49.145.534,99.964,46.085,145.529,66.658,66.675,91.99,129.537,67.769,168.152-18.427,29.374-62.247,37.23-111.646,20.009-52.861-18.428-87.256-6.116-130.8,9.468-38.746,13.871-85.811,30.717-160.15,30.717q-15.467,0-32.548-1.024c-36.642-2.252-66.308-16.531-88.178-42.437-19.418-23.006-31.784-54.691-35.766-91.634-5.44-50.516,5.093-106.469,28.9-153.512,25.86-51.107,64.7-86.221,109.367-98.875M559.353,829.11c9.17,85.11,56.56,136.513,130.024,141.025,99.86,6.133,158.454-14.834,205.524-31.683,30.4-10.88,56.7-20.291,86.941-20.291,16.838,0,34.9,2.917,55.57,10.122,51.545,17.968,97.094,10.059,116.041-20.149,25.146-40.087-1.877-106.064-72.279-176.487-49.821-49.829-50.113-105.04-50.4-158.429-.271-51.925-.534-100.971-49.81-136.7-34.258-24.847-54.946-7.487-92.5,24.034-37.394,31.39-88.616,74.381-183.047,101.133C603.914,590.436,547.944,723.175,559.353,829.11M704.581,558.7c93.793-26.571,144.719-69.318,181.9-100.528,37.471-31.45,60.082-50.431,96.3-24.169,50.546,36.653,50.809,86.459,51.088,139.192.285,52.765.569,107.328,49.49,156.259,71.5,71.515,98.678,138.923,72.714,180.318-19.744,31.475-66.721,39.89-119.683,21.427-56.766-19.788-93.695-6.573-140.451,10.163-41.573,14.878-92.072,32.956-171.835,32.953-11.061,0-22.683-.345-34.92-1.1-39.293-2.413-71.105-17.721-94.551-45.5-20.83-24.672-34.091-58.657-38.36-98.281-5.837-54.191,5.465-114.216,31-164.685,27.743-54.817,69.4-92.482,117.3-106.05M538.736,838.064c9.8,90.969,60.457,145.912,138.984,150.734,106.71,6.557,169.293-15.847,219.585-33.848,32.466-11.622,60.542-21.67,92.838-21.67,17.973,0,37.257,3.117,59.322,10.807,55.107,19.2,103.812,10.741,124.078-21.566,26.889-42.864-1.981-113.389-77.224-188.654-53.184-53.2-53.5-112.15-53.8-169.162-.293-55.491-.572-107.908-53.249-146.107-36.664-26.591-58.777-8.026-98.935,25.676-39.936,33.525-94.644,79.443-195.492,108.009-108.48,30.731-168.3,172.577-156.1,285.78M694,549.307c100.21-28.388,154.62-74.058,194.348-107.4,39.98-33.558,64.113-53.821,102.739-25.813,53.947,39.121,54.232,92.3,54.53,148.6.3,56.385.607,114.692,52.891,166.989,76.337,76.356,105.369,148.315,77.659,192.487-21.066,33.58-71.2,42.544-127.718,22.844-60.682-21.153-100.142-7.027-150.1,10.853-44.405,15.893-98.341,35.2-183.523,35.2q-17.72,0-37.293-1.177c-41.945-2.572-75.9-18.915-100.927-48.567-22.234-26.339-36.39-62.619-40.949-104.925-6.234-57.866,5.834-121.963,33.1-175.855,29.617-58.531,74.1-98.743,125.238-113.23M518.114,847.015c10.432,96.831,64.357,155.312,147.954,160.449C779.6,1014.445,846.2,990.6,899.709,971.449c34.523-12.358,64.387-23.047,98.73-23.047,19.112,0,39.614,3.311,63.076,11.491,58.671,20.453,110.53,11.427,132.118-22.987,28.629-45.642-2.085-120.718-82.166-200.82-56.552-56.566-56.886-119.259-57.209-179.891-.315-59.062-.61-114.848-56.689-155.518C958.5,372.343,934.944,392.112,892.195,428c-42.484,35.659-100.667,84.5-207.935,114.886C630.72,558.05,584.107,600.252,553,661.714c-28.741,56.8-41.46,124.338-34.89,185.3m165.3-307.105c106.63-30.205,164.518-78.8,206.791-114.281,42.5-35.673,68.15-57.2,109.181-27.455,57.351,41.589,57.652,98.139,57.964,158.008.32,60.006.649,122.053,56.3,177.719,81.176,81.2,112.054,157.7,82.6,204.654-22.382,35.681-75.661,45.2-135.757,24.264-64.584-22.516-106.575-7.484-159.748,11.548-47.226,16.9-104.594,37.435-195.2,37.435q-18.845,0-39.666-1.248c-44.591-2.736-80.7-20.111-107.3-51.635-23.638-28.005-38.7-66.587-43.54-111.569-6.628-61.544,6.206-129.712,35.208-187.028,31.494-62.244,78.789-105.007,133.171-120.411M497.489,855.969c10.9,101.182,69.562,164.794,156.921,170.16,120.37,7.391,190.969-17.877,247.7-38.179,36.587-13.1,68.234-24.426,104.627-24.426,20.253,0,41.969,3.508,66.831,12.175,62.233,21.695,117.245,12.115,140.152-24.4,30.372-48.419-2.189-128.04-87.111-212.984C1066.693,678.379,1066.34,611.94,1066,547.689c-.331-62.633-.643-121.79-60.134-164.928-41.469-30.077-66.453-9.1-111.8,28.966-45.029,37.794-106.7,89.557-220.386,121.76C616.9,549.572,567.463,594.322,534.483,659.5c-30.474,60.216-43.956,131.828-36.995,196.469M672.832,530.513c113.044-32.025,174.421-83.54,219.231-121.155,45.018-37.786,72.183-60.594,115.617-29.1,60.753,44.06,61.073,103.979,61.409,167.416.339,63.626.69,129.417,59.7,188.451,86.014,86.033,118.742,167.087,87.546,216.818-23.7,37.786-80.144,47.864-143.794,25.679-68.486-23.873-113.017-7.936-169.394,12.24-50.056,17.918-110.85,39.682-206.89,39.679q-19.966,0-42.043-1.324c-47.24-2.9-85.483-21.3-113.674-54.7-25.047-29.672-41-70.549-46.129-118.216-7.025-65.222,6.573-137.459,37.307-198.2,33.374-65.955,83.487-111.268,141.11-127.589m-195.96,334.41c11.518,106.958,73.529,174.2,165.881,179.872,127.189,7.8,201.814-18.89,261.762-40.349,38.653-13.833,72.082-25.8,110.521-25.8,21.391,0,44.334,3.708,70.585,12.856,65.793,22.937,123.963,12.8,148.189-25.819,32.118-51.2-2.3-135.369-92.056-225.15-63.287-63.3-63.659-133.483-64.015-201.354-.356-66.2-.684-128.727-63.574-174.334-43.874-31.82-70.292-9.646-118.252,30.608-47.568,39.931-112.719,94.62-232.824,128.64-60.017,17-112.262,64.3-147.122,133.19-32.206,63.64-46.458,139.323-39.1,207.639M513.2,655.882c35.251-69.666,88.186-117.527,149.043-134.767,119.464-33.842,184.322-88.285,231.677-128.035,47.533-39.9,76.225-63.979,122.059-30.742,64.157,46.526,64.494,109.818,64.849,176.824.356,67.244.722,136.781,63.109,199.181,48.211,48.222,80.267,93.886,95.282,135.722,13.264,36.959,12.3,69.206-2.791,93.262-25.022,39.89-84.618,50.524-151.834,27.1-72.4-25.239-119.462-8.39-179.038,12.935-52.891,18.928-117.111,41.923-218.583,41.92-14.06,0-28.854-.441-44.411-1.4-49.892-3.062-90.282-22.5-120.05-57.767-26.454-31.336-43.3-74.512-48.723-124.864-7.424-68.891,6.942-145.206,39.411-209.369" transform="translate(-471.878 -346.669)" fill="#d1aa77" opacity="0.15"/></svg>